<?xml version="1.0" encoding="utf-8"?>
<!-- Generator: Adobe Illustrator 25.4.1, SVG Export Plug-In . SVG Version: 6.00 Build 0)  -->
<svg version="1.1" id="Vrstva_1" xmlns="http://www.w3.org/2000/svg" xmlns:xlink="http://www.w3.org/1999/xlink" x="0px" y="0px"
	 viewBox="0 0 700 514.5" style="enable-background:new 0 0 700 514.5;" xml:space="preserve">
<g>
	<path d="M314.9,437.3c-13.9,0-23.5-9.5-23.5-23.9c0-13.5,9.4-24.9,25.2-24.9c19.8,0,27.1,14.7,27.1,37.7c0,24.1-9.4,37.6-27.5,37.6
		c-13.6,0-21.9-9.2-23-19.8h9.4c1,7,5.3,11.4,13.6,11.4c15,0,17.8-14.3,18-28.8v-0.3C330.8,433.2,323.4,437.3,314.9,437.3z
		 M300.9,412.7c0,10.4,6.3,16.1,14.9,16.1c10.5,0,17.5-6.6,17.5-16.3c0-9.3-6.1-15.6-16.6-15.6C306.6,396.8,300.9,403,300.9,412.7z"
		/>
	<path d="M391.1,462.4v-16.9h-35v-8.4l35-47h9.4v47h10v8.4h-10v17L391.1,462.4z M365.7,437H391v-34L365.7,437z"/>
	<g>
		<path d="M412,335.2H288c-15.2,0-27.6,12.4-27.6,27.6v124c0,15.2,12.4,27.6,27.6,27.6h124c15.2,0,27.6-12.4,27.6-27.6v-124
			C439.6,347.6,427.2,335.2,412,335.2z M288,343.9h124c10.5,0,19,8.5,19,19v124c0,10.5-8.5,19-19,19H288c-10.5,0-19-8.5-19-19v-124
			C269,352.4,277.5,343.9,288,343.9z"/>
		<path d="M682.6,117.5c-1.3-6.9-5.1-12.9-10.9-16.9C575.7,34.8,464.5,0,350,0C235.5,0,124.2,34.7,28.1,100.5l-0.1,0.1
			c-0.2,0.2-0.5,0.4-0.7,0.5c-0.2,0.2-0.5,0.4-0.7,0.6c-5.4,4.4-8.9,10.6-9.6,17.6c-0.7,7,1.3,13.8,5.7,19.2l75.7,94.1
			c4.9,6.2,12.5,9.9,20.4,9.9c5.3,0,10.4-1.6,14.9-4.6c65.2-44,140-67.3,216.3-67.3c76.5,0,151.3,23.3,216.3,67.3
			c4.4,3,9.6,4.6,14.9,4.6c8,0,15.4-3.5,20.4-9.7l75.7-94c0.5-0.5,1-1.1,1.3-1.7C682.4,131.3,683.9,124.4,682.6,117.5z M350,8.6
			c112.9,0,222.4,34.3,316.8,99.1l1.1,0.8c3.6,2.9,5.9,7.1,6.4,11.8c0.5,4.7-0.9,9.3-3.8,12.9l-75.8,94.1c-3.3,4.1-8.4,6.6-13.6,6.6
			c-3.5,0-7-1.1-10-3.1c-66.5-45-142.9-68.9-221.1-68.9c-78.2,0-154.7,23.8-221.2,68.9c-3,2.1-6.5,3.1-10,3.1
			c-5.3,0-10.3-2.5-13.6-6.6l-75.7-94l-0.9-1.1c-5.4-8-3.4-19,4.5-24.5C127.6,42.8,237.2,8.6,350,8.6z"/>
	</g>
	<path d="M214.9,104l0.1,0.2c7.4-1.2,15.3,2.2,18.7,12.2c4.2,12.4-2.2,22.5-16,27.2l-28.9,9.8l-22.8-67l27-9.2
		c13.7-4.7,24.2-1,27.7,9.4C223.3,94.9,219.8,100.2,214.9,104z M203.7,104.8c9.6-3.3,10.8-8.3,8.7-14.4c-2.1-6-7-9.1-14.8-6.4
		l-20.8,7l6.9,20.5L203.7,104.8z M194.5,143l21.3-7.2c10.8-3.7,11.5-10.3,9.3-16.5c-2.5-7.2-8.6-10.5-15.6-8.1l-23.2,7.8L194.5,143z
		"/>
	<path d="M265.8,58.2l28.5-3.5c13.9-1.7,24.2,4.7,25.7,17.1c1.2,10.1-3,16.3-10.4,19.2v0.2c16,1.2,13.7,29.5,17.4,30.2l0.1,0.6
		l-9.5,1.2c-3.4-2.6,0.2-28.8-17.6-26.7l-20.3,2.6l3.5,28.4l-8.8,1.1L265.8,58.2z M278.8,91.2l17.6-2.1c7.3-0.9,16.3-2.9,14.9-15.1
		s-10.8-12-18-11.1l-17.6,2.2L278.8,91.2z"/>
	<path d="M368.7,51.3l10.9,1l29.8,61.4h0.2l5.4-58.1l8.9,0.8l-6.6,70.6l-10.9-1l-29.8-61.2h-0.2l-5.4,57.9l-8.9-0.8L368.7,51.3z"/>
	<path d="M458.2,98.6c6.5-20.3,24.5-30.8,44.3-24.5s28.3,25.3,21.8,45.6s-24.5,30.9-44.3,24.6C460.2,138,451.8,118.9,458.2,98.6z
		 M515.8,117.1c4.7-14.6,1.3-29.9-15.7-35.4c-17-5.4-28.7,5.1-33.4,19.6c-4.7,14.6-1.3,30,15.7,35.5
		C499.4,142.2,511.1,131.6,515.8,117.1z"/>
</g>
</svg>
