<?xml version="1.0" encoding="utf-8"?>
<!-- Generator: Adobe Illustrator 25.4.1, SVG Export Plug-In . SVG Version: 6.00 Build 0)  -->
<svg version="1.1" id="Vrstva_1" xmlns="http://www.w3.org/2000/svg" xmlns:xlink="http://www.w3.org/1999/xlink" x="0px" y="0px"
	 viewBox="0 0 700 573" style="enable-background:new 0 0 700 573;" xml:space="preserve">
<style type="text/css">
	.st0{fill-rule:evenodd;clip-rule:evenodd;}
</style>
<g>
	<polygon class="st0" points="237.7,225.9 243.7,213.1 231,219.3 220.6,209.7 222.6,223.7 210.2,230.5 224.2,233 226.9,246.9 
		233.5,234.4 247.5,236.1 	"/>
	<polygon class="st0" points="477.3,223.7 479.2,209.7 468.9,219.3 456.2,213.1 462.2,225.9 452.3,236.1 466.4,234.4 473,246.9 
		475.7,233 489.6,230.5 	"/>
	<path class="st0" d="M350,0C197.8,0,73.7,124.1,73.7,276.3S197.8,552.6,350,552.6c152.2,0,276.3-124.1,276.3-276.3S502.2,0,350,0z
		 M560.8,235.8c0.1,3.7,0.1,3.7,0.3,4.3c0,1.3,0,2.6,0,3.9c-0.2,0-0.4,0.1-0.6,0.1c-1.4-0.8-1.4-0.8-1.6-1.1c-2.5-1-5.7-2.1-8.1-3.1
		c-0.4-0.2-0.8-0.5-1.2-0.7c-0.5-0.4-0.9-0.9-1.4-1.3c-0.2-0.4-0.5-0.9-0.7-1.3c-0.2-0.9-0.3-1.7-0.6-2.6c-0.3-3.8-0.3-3.8-0.4-4.2
		c-0.9-8.2-0.9-8.2-0.8-8.4c0.2,0,0.4,0,0.6,0c0.6,0.4,1.3,0.8,1.9,1.2c2.8,1.1,3.1,1.1,4.1,1.5c1,0.1,1.1,0.3,2.7,0.5
		c1.5,0.5,1.5,0.5,2.4,1.1c1.1,0.9,1.2,1.2,1.5,1.3c0.5,0.7,0.5,0.7,1.1,2.2C560.2,230.6,560.5,234.4,560.8,235.8z M557.5,210.2
		c0.3,2.3,0.6,4.5,0.9,6.8c0.1,0.3,0.2,0.6,0.3,1c0.3,2.9,0.3,2.9,0.3,4.5c-0.2,0-0.4,0-0.6,0.1c-0.6-0.5-0.6-0.5-2.2-1.2
		c-0.8-0.1-0.8-0.1-6.3-1.7c-1-0.6-1-0.6-1.5-1.1c-0.2,0-0.4-0.1-0.6-0.1c-0.3-0.4-0.3-0.4-1.4-1.1c-0.6-0.9-1.1-1.7-1.7-2.6
		c-0.4-2.5-0.8-5-1.2-7.5c-1.6-8.1-1.6-8.1-1.6-8.8c0.2-0.4,0.2-0.4,0.4-0.5c0.3,0,0.5,0.1,0.8,0.2c0.2,0.1,0.3,0.2,0.5,0.4
		c2.5,0.5,2.5,0.5,5.7,1c1.1,0.4,2.2,0.7,3.3,1.1c0.9,0.6,1.9,1.2,2.9,1.9c0.5,0.9,1,1.7,1.6,2.6
		C557.2,208.8,557.2,208.8,557.5,210.2z M550.6,180.9c0.6,1.3,0.6,1.3,1.7,4.6c0.6,2.5,0.6,2.5,2.9,9.8c0.3,1.7,0.3,1.7,0.3,2.8
		c-0.1,0.1-0.2,0.2-0.3,0.3c-1-0.5-1-0.5-4.3-1.5c-4-0.8-4-0.8-5.4-0.8c-0.9-0.4-1.8-0.7-2.7-1.1c-0.8-0.7-1.5-1.3-2.3-2
		c-0.6-1.4-0.6-1.4-3.1-9c-0.3-0.3-0.3-0.3-2.1-4.8c0-0.3,0-0.7,0-1.1c1,0.1,1,0.1,3.8,0.6c5.7,0.2,5.7,0.2,8.3,0.4
		c1.4,0.5,1.4,0.5,2.7,1.2C550.2,180.6,550.2,180.6,550.6,180.9z M542.7,160.8c2.3,5.7,3.7,8.7,5.6,13.3c0.3,1.2,0.3,1.2,0.2,1.7
		c-0.2,0-0.3,0.1-0.6,0.2c-0.4-0.1-0.8-0.2-1.2-0.2c-2.7,0-5.3-0.1-8-0.1c-0.8-0.2-1.5-0.3-2.4-0.5c-1-0.5-2-1-3-1.6
		c-0.2-0.2-0.4-0.5-0.6-0.8c-0.1,0-0.2,0-0.3,0c-3.8-7.8-5-10.6-6.4-13.2c0-0.4,0-0.8,0-1.1c0.9-0.1,0.9-0.1,3.9,0.1
		c1.2-0.2,2.5-0.3,3.7-0.5c0.8,0,1.6,0,2.4,0c2.7,0.7,2.7,0.7,4.6,1.4C541.5,159.8,542.1,160.3,542.7,160.8z M531,139.1
		c0,0.1,0,0.2,0,0.3c0.2,0.1,0.4,0.2,0.6,0.4c0.9,1.6,1.9,3.2,2.9,4.9c0.2,0.6,0.4,1.3,0.7,2c0.1,0,0.2,0,0.3,0
		c0.4,0.7,0.9,1.4,1.4,2.2c1,2,2,4,3,6c0,0.2,0,0.3-0.1,0.5c-0.3,0-0.6,0.1-0.9,0.1c-0.7-0.2-1.4-0.3-2.1-0.5c-1.1,0-2.1,0-3.3-0.1
		c-0.6,0.1-1.2,0.2-1.8,0.3c-1.2,0-2.5,0.1-3.7,0.1c-0.5-0.1-1.1-0.1-1.6-0.2c-0.5-0.2-1-0.4-1.6-0.7c-0.5-0.3-1-0.6-1.5-1
		c0-0.1,0-0.2,0-0.3c-0.1,0-0.2,0-0.3,0c-0.5-1-1-1.9-1.5-2.9c-1-1.6-2-3.2-3-4.8c-0.3-0.6-0.6-1.2-0.9-1.8
		c-0.7-1.1-1.4-2.2-2.1-3.3c0-0.2,0-0.4-0.1-0.6c0.8-0.1,2.7,0.2,5.7,0.1c2.1-0.4,4.3-0.8,6.5-1.3c0.9,0.1,1.8,0.1,2.7,0.2
		C530.4,138.8,530.7,139,531,139.1z M516.2,118.4c0.7,0.4,1.4,0.8,2.1,1.3c0.7,0.8,1.4,1.6,2.1,2.5c1.3,2.1,2,2.9,3.3,4.9
		c0.5,0.5,0.8,1.2,1.1,1.4c0.4,0.7,0.8,1.4,1.2,2.2c0.7,0.8,2.1,3.1,2.3,3.2c0.2,0.6,0.2,0.6,0.2,1.2c-3.9,0.6-3.9,0.6-7.9,1.6
		c-0.7,0.1-1.5,0.2-2.3,0.3c-0.8-0.2-1.6-0.3-2.4-0.5c-0.9-0.3-1.8-0.6-2.7-0.9c-0.5-0.4-1.1-0.7-1.6-1.1c-0.1-0.3-0.1-0.3-0.7-0.7
		c-1.6-2.1-3.2-4.3-4.8-6.5c-0.6-0.4-3.4-4.2-4.6-5.5c-0.3-0.5-0.3-0.5-0.3-1c0.8-0.3,5.6-1.5,7-2.1c0.9-0.2,1.9-0.5,2.8-0.8
		c0.9,0,1.8,0,2.7-0.1C514.6,118,515.4,118.2,516.2,118.4z M501.1,100.3c1.2,1.4,1.5,1.4,2.7,2.7c0.1,0.3,1,1.1,5.7,6.5
		c0.7,0.7,0.9,0.9,1.3,1.2c1.1,1.3,1.1,1.3,1.4,1.5c0.4,0.6,0.9,1.3,1.3,1.9c0,0.2-0.1,0.4-0.1,0.6c-1.2,0.1-2.3,0.3-3.5,0.4
		c-2.5,0.8-5,1.7-7.5,2.5c-1.1,0-2.3,0.1-3.4,0.2c-0.7-0.4-1.4-0.7-2.1-1.1c-0.6-0.5-1.2-1.1-1.8-1.7c-1.5-1.8-1.9-2-2.7-2.9
		c-0.3-0.1-0.3-0.1-3.5-3.4c-0.3-0.5-0.9-0.8-1-1.1c-0.3-0.2-1.8-1.7-1.9-2c-0.1,0-0.3-0.1-0.5-0.1c-0.5-0.6-1-1.2-1.6-1.8
		c0-0.3,0-0.5,0-0.8c1-0.1,2.1-0.3,3.2-0.5c1.2-0.4,2.4-0.8,3.6-1.2c2.3-1.2,2.3-1.2,4-1.8c0.4-0.1,0.9-0.2,1.3-0.3
		c0.8,0,1.6,0,2.5-0.1C500,99.6,500,99.6,501.1,100.3z M481.3,83.3c0.8,0.2,1.5,0.3,2.3,0.5c3.8,3.5,7.6,6.9,11.4,10.5
		c0.3,0.4,0.6,0.8,0.9,1.2c0,0.3,0,0.3-0.3,0.6c-2.5,0.6-2.5,0.6-4.5,1.2c-0.4,0.3-1.9,0.9-3.9,1.9c-1,0.3-1,0.3-4.8,0.9
		c-0.4-0.2-0.4-0.2-3-0.7c-0.9-0.5-1.8-1-2.7-1.6c-1.5-1.5-1.5-1.5-5.5-4.9c-1.5-1.1-2.9-2.2-4.4-3.4c0-0.2-0.1-0.3-0.2-0.5
		c0-0.1,0.1-0.3,0.2-0.5c0.8-0.2,1.6-0.4,2.5-0.6c1.9-1,3.9-1.9,5.8-2.9c1.8-0.6,3.1-1.2,4.2-1.5C479.9,83.4,480.6,83.4,481.3,83.3z
		 M464.1,69.5c1.3,0.8,2.7,1.5,4,2.3c5.7,4,7.6,5.6,8,5.8c0.3,0.3,0.6,0.4,2.3,1.9c0.2,0.3,0.2,0.3,0.1,1c-1.1,0.4-2.2,0.8-3.4,1.2
		c-2,1.1-2.7,1.3-3.7,2c-1.4,0.6-1.4,0.6-2.6,1.3c-1,0.3-2,0.6-3,0.9c-0.6,0.1-1.3,0.2-2,0.3c-0.5-0.2-1-0.3-1.6-0.5
		c-1-0.6-2.1-1.1-3.1-1.7c-0.9-0.7-1.7-1.3-2.6-2c-0.5-0.2-0.9-0.5-7.4-4.5c-0.1-0.1-0.2-0.2-0.3-0.4c0.1-0.3,0.2-0.5,0.3-0.8
		c0.8-0.4,1.5-0.8,2.4-1.2c0.9-0.6,1.8-1.1,2.7-1.7c0.4-0.4,0.9-0.8,1.3-1.2c0.7-0.5,1.4-0.9,2.1-1.4c0.9-0.4,1.9-0.9,2.8-1.3
		C462.2,69.4,462.2,69.4,464.1,69.5z M441.6,58.4c0.6,0,1.2,0,1.8,0c0.8,0.2,1.5,0.4,2.4,0.7c4.6,2.3,4.6,2.3,6.7,3.6
		c0.4,0.1,0.8,0.2,1.2,0.4c3.2,1.9,3.2,1.9,3.4,2.2c0.4,0.2,0.9,0.4,1.3,0.6c0.2,0.2,0.3,0.4,0.6,0.7c0,0.2,0,0.3,0,0.5
		c-1.1,0.6-1.1,0.6-2.2,1c-2.1,1.5-4.1,3-6.2,4.5c-0.7,0.4-1.5,0.8-2.2,1.3c-0.5,0.2-1,0.4-1.6,0.6c-0.5,0.1-1,0.1-1.5,0.2
		c-0.4,0-0.9-0.1-1.3-0.2c-0.9-0.4-1.9-0.7-2.9-1.1c-4.1-1.9-8.2-3.8-12.3-5.8c0-0.2,0-0.3,0-0.5c3.8-2.4,3.8-2.4,4.7-3.1
		c0.1,0,0.3,0,0.4-0.1c0.7-0.9,1.6-1.6,2.4-2.5c0.9-0.6,1.8-1.3,2.7-2C439.8,59,440.7,58.7,441.6,58.4z M418.6,48.4
		c0.3,0,0.7,0,1.1,0c0.7,0.1,1.4,0.3,2.1,0.4c2.6,1,3.6,1.3,4,1.5c1.6,0.6,6.9,2.9,7.5,3.1c4.4,2.3,4.4,2.3,4.5,2.5
		c0,0.2,0,0.4-0.1,0.6c-0.5,0.3-1,0.6-1.5,0.9c-3,2.7-3,2.7-3.3,3.2c-1.2,1-2.4,2-3.7,3c-1.1,0.5-2.2,1-3.3,1.4
		c-1.2,0.1-2.4,0.1-3.6,0.2c-4-1.5-5.7-2-6.9-2.6c-0.9-0.2-0.9-0.2-9.4-3.3c0-0.3,0-0.6,0-0.9c0.2-0.1,0.5-0.3,0.7-0.4
		c1.2-1.2,1.6-1.3,2-1.8c0.4-0.2,0.4-0.2,0.5-0.5c2.3-2.4,2.9-3.3,4.1-4.6c0.9-0.6,1.8-1.3,2.7-1.9
		C416.9,48.9,417.7,48.7,418.6,48.4z M393.1,42.1c0.3-0.1,0.6-0.3,0.9-0.4c0.8,0,1.6,0,2.5-0.1c2.6,0.7,5.4,1.1,7.1,1.6
		c4.4,1,4.4,1,8.1,2.1c0.8,0.3,1.5,0.6,2.3,1c0,0.2,0,0.3,0,0.5c-1.6,1.1-1.6,1.1-2.9,2.3c-1.6,1.7-4.4,5.1-5.8,6.6
		c-0.5,0.3-1,0.6-1.5,0.9c-2.4,0.6-2.4,0.6-3.9,0.9c-1.3-0.5-2.9-0.7-6.6-1.7c-0.9-0.1-1.2-0.3-1.9-0.3c-0.3-0.1-0.5-0.2-0.8-0.3
		c-1.3-0.1-2.7-0.5-3.9-0.6c-1.9-0.5-1.9-0.5-2.5-0.9c0-0.2,0-0.4,0-0.6c0.3-0.3,0.6-0.7,1-1.1c2.7-4,3.3-5,4.7-6.9
		c0.5-0.5,0.9-1.1,1.5-1.6C391.7,43,392.4,42.6,393.1,42.1z M443,432.2c-0.2,1-0.2,1-0.7,2.6c-0.7,1.4-0.7,1.4-1.4,2.3
		c-0.3,0.2-0.5,0.4-0.8,0.6c-3.1,1.6-8.4,3.8-9.4,4.4c-1.8,0.7-3.7,1.5-5.6,2.2c-0.3,0-0.6,0.1-0.9,0.1c0-0.4,0-0.8-0.1-1.3
		c0.2-0.7,0.3-1.4,0.6-2.1c0.3-3.9,0.3-3.9,0.3-6c0.1-1,0.3-2.1,0.4-3.2c0.6-1.6,0.6-1.6,1.2-2.5c0.4-0.3,0.8-0.7,1.2-1.1
		c1.3-0.8,2.6-1.6,3.9-2.3c3.2-1.2,3.2-1.2,8.4-3.5c2.1-1.1,2.1-1.1,2.7-1.3c0.2,0,0.3,0,0.5,0c-0.1,1.3-0.2,2.5-0.3,3.8
		C443.1,429.4,443.1,429.4,443,432.2z M440,333c-2.4,13.5-11.5,20.9-24.2,23.5c-1.3,0-2.6,0-3.9-0.1c-13.2-1.1-23.7-19.7-27.7-29.9
		c-1.8-4.6-3.5-9.1-4.5-13.9c7-0.2,14.9-1.1,22-2.8l1.2,4.4c4.1,15.5,16.6,24.6,32.8,19.2C436.6,333.1,440.4,330.7,440,333z
		 M241.1,284.6c0.3,2.3-4.3,1-5.9,1.5c-10.2-1.4-15.4-2.9-23.6-8.8c-19.5-14.1-25.3-41.9-13.7-63.7c19.2-35.9,61.9-36.7,87.8-8.1
		c17,18.8,28.9,48.6,32.7,73.8c0.1,0.7,0.2,1.7-0.8,1.8c-6.7,0.6-13.9,0.8-20.5,2.3c-2.4,0.6-2.7,0.2-3.3-2.2
		c-5.5-23.4-28.7-40.3-48.9-21.1C238.2,266.4,240,276.4,241.1,284.6z M264.1,333.4c16.2,5.4,28.7-3.7,32.8-19.2l1.2-4.4
		c7.1,1.8,15,2.7,22,2.8c-1,4.8-2.7,9.3-4.5,13.9c-3.9,10.2-14.4,28.9-27.7,29.9c-1.3,0.1-2.6,0-3.9,0.1
		c-12.7-2.7-21.8-10.1-24.2-23.5C259.5,330.7,263.2,333.1,264.1,333.4z M313,442.2c0-0.1,0-0.2,0-0.3c0.8-0.4,1.6-0.8,2.4-1.2
		c0.8-0.2,1.6-0.4,2.5-0.6c0.6,0,1.3,0,1.9,0c2.4,0.3,4.9,0.6,7.4,0.8c3.4,0.1,6.8,0.2,10.2,0.3c0.1,0.1,0.3,0.2,0.4,0.3
		c0,0.1,0,0.3,0,0.5c-1.5,1.8-1.5,1.8-1.8,2c-3,4.6-3,4.6-3.1,5c-0.1,0-0.2,0-0.3,0.1c-1.9,2.6-1.9,2.6-2.2,2.8
		c-0.8,0.9-0.8,0.9-2,1.8c-0.7,0.3-1.5,0.7-2.2,1.1c-1.1,0.1-2.2,0.2-3.3,0.3c-3.1-0.6-3.1-0.6-3.4-0.7c-0.6,0-1.3-0.1-2-0.1
		c-4.5-0.7-4.5-0.7-6.3-0.8c-1.4-0.3-2.7-0.5-4.2-0.8c-0.2-0.3-0.2-0.3-0.2-1.5c0.4-0.9,0.8-1.9,1.2-2.8c0.8-1.3,1.5-2.6,2.4-3.9
		c0.1,0,0.2,0,0.3,0c0-0.1,0-0.2,0-0.3c0.1,0,0.2,0,0.3,0c0.1-0.2,0.2-0.5,0.3-0.7C311.8,442.9,312.4,442.5,313,442.2z M312.3,438.5
		c0.1-1.5,0.2-2.9,0.3-4.4c0.2-1.2,0.4-2.4,0.7-3.7c0.3-0.8,0.6-1,0.8-1.6c0.8-0.8,1-1.3,2.1-2.4c1.3-0.7,1.3-0.7,2.4-1.1
		c3.3-0.2,3.3-0.2,7-0.1c3.6,0.6,3.6,0.7,4.4,0.9c0.1,0.1,0.1,0.1,2.8,0.7c1.8,0.6,3.6,1.3,5.4,1.9c1.1,0.5,2.2,1,3.3,1.5
		c0,0.2,0,0.3,0,0.5c-1,0.5-2.1,1-3.1,1.5c-1.4,1-1.6,1.4-2.8,2.2c-0.1,0.2-0.3,0.3-0.4,0.6c-1.1,0.7-1.8,1.6-2.9,2.3
		c-0.6,0.2-1.3,0.5-1.9,0.8c-1.2,0.2-1.2,0.2-1.4,0.3c-2.7,0.1-2.7,0.1-3.1-0.1c-1.7-0.1-3.5-0.3-5.2-0.4c-3.9,0.1-3.9,0.1-5.2,0.3
		c-0.6,0.3-1.3,0.5-2,0.8c-0.3,0-0.6,0.1-0.9,0.1C312.5,439,312.4,438.7,312.3,438.5z M334.7,439.2c-0.1,0-0.2-0.1-0.3-0.1
		c0-0.2,0.1-0.4,0.2-0.6c3.5-2.8,4.3-3.6,6.2-4.9c2.2-0.9,2.2-0.9,3.5-1.2c1,0,1,0,5.5,0.6c0.6,0.2,1.3,0.4,1.9,0.7
		c0,0.1,0.1,0.3,0.2,0.5c-0.2,0.2-0.3,0.3-0.6,0.5c-2.9,1.2-2.9,1.2-9.6,3.5c-0.8,0.2-1.7,0.4-2.5,0.6
		C337.7,438.9,336.2,439,334.7,439.2z M349.9,397.2c-9.1,0-39.7-29.6-42-38.8c10.2-15.4,14.6-26.8,17.7-45.6
		c6.5,0.4,12.9,0.4,19.4-0.1l3,51.1c0.2,1.7,1.1,2.8,1.9,3.4c0.8-0.6,1.7-1.8,1.9-3.4l3-51.1c6.5,0.5,12.9,0.5,19.4,0.1
		c3.1,18.7,7.5,30.2,17.7,45.6C389.6,367.6,359,397.2,349.9,397.2z M275.5,431.2c0.9,0,1.9,0,2.8-0.1c0.5,0.3,2.1,0.7,8.8,2.7
		c5.6,1.6,5.6,1.6,5.7,1.7c0,0.3,0,0.7,0,1.1c-0.4,0.7-0.8,1.4-1.2,2.2c-3.2,2.4-3.4,2.7-3.8,2.9c-1.7,1.6-1.7,1.6-3.9,3.3
		c-1.1,0.6-1.1,0.6-2.3,0.9c-0.7,0.1-1.4,0.2-2.1,0.3c-3.3-0.9-3.3-0.9-10-2.9c-1.5-0.6-3.1-1.3-4.7-2c-0.2-0.2-0.4-0.3-0.7-0.5
		c0-0.5,0-0.5,0.2-0.9c0.5-0.3,1-0.5,1.5-0.8c2.4-2.1,2.6-2.4,3.6-3.3c0.9-1.4,1.2-1.5,1.6-2c0.1,0,0.2,0,0.3-0.1c0-0.1,0-0.2,0-0.3
		c0.6-0.5,1.3-1,1.9-1.5C274.2,431.8,274.8,431.5,275.5,431.2z M292.7,442.6c0.2-0.5,0.4-0.9,0.6-1.4c1-1.6,2-3.1,3-4.7
		c1.5-1.5,1.5-1.8,3.1-3.7c1.7-1.5,1.7-1.5,4.5-3.6c1.4-0.6,2.8-1.2,4.3-1.9c0.9-0.2,1.8-0.5,2.7-0.7c0.6,0,1.1,0,1.7,0
		c0,0,0.1,0.1,0.2,0.2c-0.1,0.5-0.1,0.5-1.5,3c-0.6,1.8-0.6,1.8-0.9,3.4c-0.1,1.6-0.3,2.1-0.6,5.2c-0.6,2.2-0.6,2.2-1.1,3.4
		c-1.2,1.9-2.5,3.9-3.7,5.9c-0.3,0.7-0.7,1.4-1,2.1c-0.3,1.3-0.6,1.9-1.1,4.8c-0.1,0.2-0.2,0.4-0.3,0.6c-0.3,0-0.6,0.1-0.9,0.1
		c0-0.3-0.1-0.6-0.2-1c-0.3,0-0.6-0.1-1-0.2c-1.7-1.2-2.2-1.4-2.5-1.6c-0.2,0-0.4-0.1-0.6-0.2c-0.5-0.5-0.5-0.5-1.5-1.2
		c-0.5-0.5-0.9-1.1-1.5-1.6c-0.5-0.8-0.9-1.7-1.4-2.5c-0.1-0.5-0.3-1-0.4-1.6C292.6,444.3,292.7,443.5,292.7,442.6z M307.2,464.8
		c1.1-0.6,1.1-0.6,5.8-2.5c4.5-1.2,4.5-1.2,7.7-1.8c0.6,0,1.2,0,1.8,0c0.1,0.1,0.3,0.2,0.4,0.2c0,0.2,0,0.4,0,0.6
		c-0.4,0.5-0.8,0.9-1.2,1.4c-0.3,0.7-0.7,1.1-1.9,3.5c-0.5,1.3-0.5,1.3-1.7,6.5c-0.1,0.2-0.3,0.4-0.4,0.7c-0.2,0.1-0.4,0.3-0.6,0.4
		c-0.4,0-0.9,0.1-1.3,0.1c-0.8-0.3-1.7-0.7-2.5-1c-1.9-1.1-1.9-1.1-3.9-2.7c-0.6-0.8-0.6-0.8-1.3-2.3c-0.3-0.4-0.6-0.7-1-1.1
		c-0.1-0.5-0.2-1-0.3-1.5C306.9,465.1,307.1,464.9,307.2,464.8z M322.3,467.6c1.2-2.6,1.2-2.6,2.1-4c0.3-0.4,0.6-0.8,1-1.1
		c0.7-0.5,1.4-1,2.1-1.5c0.3-0.1,0.6-0.2,1-0.3c0.9-0.1,1.7-0.1,2.6-0.2c1.9,0.1,3.9,0.2,5.9,0.3c3.6,0.5,7.3,1,11,1.6
		c3.3,0.8,3.3,0.8,4.6,1.2c0,0.1-0.1,0.3-0.2,0.5c-0.2,0.1-0.3,0.3-0.6,0.4c0,0.1,0,0.2,0,0.3c-0.2,0-0.3,0-0.5,0.1
		c-1.4,1-1.4,1-3.1,2.6c-0.1,0.2-0.2,0.4-0.3,0.6c-0.1,0-0.2,0-0.3,0c-0.4,0.6-0.7,0.7-1.7,1.9c-0.6,0.5-1.2,1.2-1.7,1.5
		c0,0.1,0,0.2,0,0.3c-0.1,0-0.2,0-0.3,0c0,0.1,0,0.2,0,0.3c-0.2,0-0.4,0.1-0.6,0.1c0,0.1,0,0.2,0,0.3c-0.1,0-0.3,0-0.4,0
		c0,0.1,0,0.2,0,0.3c-0.9,0.4-1.8,0.9-2.7,1.4c-1.8,0.6-1.8,0.6-2.9,0.7c-0.6-0.2-0.6-0.2-5.3-0.5c-1.3,0-3.9-0.2-10.2-0.2
		c-0.3-0.1-0.5-0.2-0.8-0.3c0-0.1-0.1-0.2-0.2-0.4C321.7,469.9,321.7,469.9,322.3,467.6z M346.4,453.2c-1.5,0.4-3.1,0.8-4.7,1.2
		c-0.9,0.1-1.9,0.3-2.8,0.5c-2.4,0.2-4.8,0.3-7.2,0.5c-0.2-0.2-0.2-0.2-0.6-0.3c0-0.3,0-0.5,0.1-0.8c1.5-1.5,1.5-1.5,2.9-3.2
		c1.4-2.1,2.8-4.2,4.2-6.3c0.5-0.6,0.9-1.1,1.5-1.7c1.4-1.1,2.7-2.1,4.1-3.2c5.2-2.4,7.9-3.4,10.8-4.7c0.3-0.3,0.9-0.4,2.7-1.6
		c1.1-0.5,2.1-1,3.2-1.5c0.3,0,0.6,0,0.9-0.1c0,0.3,0,0.5,0,0.8c-0.3,1.1-0.7,2.2-1.1,3.3c-0.6,2.3-1.2,4.5-1.8,6.8
		c-0.4,1.1-0.8,2.2-1.2,3.4c-0.4,0.7-0.9,1.4-1.3,2.1c-0.3,0.3-0.6,0.6-0.9,1c-0.7,0.4-1.5,0.9-2.2,1.3C350,452,350,452,346.4,453.2
		z M363,436.5c0.3-1,0.7-1.9,1.1-2.9c0.8-1.3,1.5-2.7,2.3-4c0.5-0.6,1-1.2,1.6-1.8c2-1.4,2-1.4,3.9-2.5c4.3-1.8,6.9-3.1,9.5-4.1
		c1.3-0.4,2.7-0.8,4-1.2c4.7-0.7,4.7-0.7,6.3-0.7c0.4,0.2,0.4,0.2,2.9,0.2c1.4,0.4,2.8,0.8,4.2,1.2c0,0.2,0,0.4,0,0.6
		c-0.9,0.2-1.8,0.4-2.8,0.6c-2.7,1.2-2.7,1.2-4.4,2.1c-1,0.9-1.7,1.2-4,3.4c-0.7,1-0.7,1-1.4,1.7c-0.9,1.4-1.8,2.8-2.7,4.2
		c-0.5,0.6-1,1.1-1.5,1.7c-0.9,0.8-1.8,1.5-2.7,2.4c-2,1.2-3.5,1.8-17.5,9.4c-0.4,0.1-0.9,0.3-1.3,0.4c0-0.4,0-0.8-0.1-1.2
		C361.6,442.2,361.8,440.8,363,436.5z M401.9,434.7c-3.1,0.5-3.2,0.6-5,0.7c-0.7-0.6-0.7-0.6-2.1-1.4c-1.4-0.4-1.4-0.4-3.6-0.6
		c-0.6,0-1.3,0-2,0c-2.1,0.5-2.1,0.5-2.4,0.4c0-0.3,0-0.5,0-0.8c0.5-0.7,0.9-1.4,1.5-2.2c1.5-1.5,3-3,4.6-4.6c1.8-0.9,2.1-1.2,3.9-2
		c0.9-0.1,1.8-0.3,2.7-0.5c1.1,0,2.1,0,3.3,0.1c0.6,0.2,1.2,0.4,1.8,0.5c1,0.6,2.1,1.2,3.2,1.8c0.1,0.2,0.3,0.3,0.4,0.5
		c0.2,0.1,0.4,0.2,0.6,0.3c1,1.1,2,2.2,3,3.3c0.3,0.7,0.3,0.7,0.3,1c-0.1,0.1-0.3,0.3-0.4,0.4C408.4,432.6,405.2,433.6,401.9,434.7z
		 M402.5,437.7c-0.3,0.7-0.6,1.5-1,2.2c-0.1,1.3-0.3,1.7-0.9,5.3c-0.6,1.7-0.6,1.7-1.2,3c-1,1.4-1,1.4-1.8,2.3
		c-0.4,0.3-0.8,0.6-1.2,0.9c-1.2,0.3-1.2,0.3-9.9,1.5c-2.1,0-4.3,0.1-6.4,0.2c-0.8-0.2-1.6-0.3-2.4-0.5c0.1-0.3,0.2-0.6,0.3-0.9
		c0.3-0.4,0.7-0.8,1.1-1.3c0.5-1,1-1.9,1.6-3c0.5-1.3,0.9-2.7,1.4-4.1c0.4-0.8,0.9-1.7,1.4-2.5c0.3-0.3,0.7-0.5,1-0.8
		c0.6-0.3,1.2-0.5,1.8-0.8c0.9-0.2,1.9-0.4,2.9-0.6c1.5-0.1,2.9-0.2,4.4-0.3c3-0.6,3-0.6,9.1-1.5C402.5,437,402.5,437.3,402.5,437.7
		z M361,449.7c4.3-2.3,13.8-7,18-9.3c0.3,0,0.5-0.1,0.8-0.1c0.1,0,0.2,0.1,0.3,0.2c0,0.4-1.2,3-2.3,6.4c-0.3,0.7-0.7,1.4-1.1,2.1
		c-0.6,0.6-1.2,1.3-1.8,2c-0.9,0.6-0.9,0.6-2.7,1.4c-1,0-2,0.1-3,0.1c-0.4-0.2-0.4-0.2-3.6-0.6c-1.9-0.6-1.9-0.6-4.2-1.1
		c-0.1-0.1-0.3-0.2-0.4-0.3C361,450.2,361,450,361,449.7z M362.9,464.2c0.2-0.2,0.5-0.4,0.7-0.7c0.9-0.4,1.9-0.8,2.9-1.2
		c4.2-1.2,4.2-1.2,8.2-2.1c0.8-0.1,1.6-0.2,2.4-0.3c2.1,0,4.3-0.1,6.4-0.1c4.9,0.3,4.9,0.3,5.7,0.5c0,0.1,0,0.3-0.1,0.5
		c-0.8,0.4-1.5,0.6-4.6,2.4c-0.6,0.4-1.1,0.9-1.7,1.3c-3,3.3-4.6,5.2-6,6.6c-0.3,0-0.6,0.1-0.9,0.1c-0.9-0.5-1.3-0.9-5.8-3.3
		c-0.9-0.6-0.9-0.6-3.1-1.7c-2.6-1.1-3.3-1.2-4.2-1.6C362.9,464.4,362.9,464.3,362.9,464.2z M379.8,471.3c0.1,0,0.2,0,0.3,0
		c0-0.1,0-0.3,0.1-0.4c1.7-2,1.7-2,4.8-4.9c0.1,0,0.3-0.1,0.4-0.1c0-0.1,0-0.2,0-0.3c2.6-1.4,2.6-1.4,5.1-2.6
		c1.8-0.6,1.8-0.6,3.6-0.9c0.9,0,1.8,0,2.7,0.1c0.6,0.2,1.3,0.3,2,0.5c0,0.1,0,0.2,0,0.3c0.8,0.3,1.6,0.6,2.4,0.8
		c1.7,0.8,3.3,1.6,5,2.4c0,0.1,0,0.2,0,0.3c0.4,0.2,0.8,0.3,1.2,0.5c1,0.6,2.1,1.2,3.1,1.9c0.2,0,0.4,0.1,0.7,0.2c0,0.1,0,0.2,0,0.3
		c0.6,0.3,1.1,0.6,1.7,0.9c0,0.1,0,0.2,0,0.3c0.3,0.1,0.7,0.2,1,0.4c0,0.1,0,0.2,0,0.3c0.4,0.3,0.9,0.6,1.3,0.9
		c0,0.1,0.1,0.3,0.1,0.5c-1.2,0-2.4,0-3.6,0.1c-2.3,0.5-2.3,0.5-9,2.4c-0.2,0.2-0.2,0.2-2.7,0.6c-1.3,0-2.6,0.1-3.9,0.2
		c-7.1-2.2-7.1-2.2-10.3-3c-2.4-0.2-2.4-0.2-2.8-0.4c-1.2,0-2.4,0.1-3.6,0C379.6,472.1,379.7,471.7,379.8,471.3z M404.4,461.2
		c0.3-0.9,0.9-4.6,1-4.8c0.2,0,0.4,0,0.6,0c0.8,0.8,1.2,0.9,1.3,1.3c3.3,2.7,3.9,3.5,4.8,4.1c0.7,0.9,1.4,1.9,2.1,2.8
		c0.3,0.7,0.6,1.5,0.9,2.2c0,0.5,0,0.9,0.1,1.4c-0.2,0-0.3,0-0.6,0c-0.1-0.2-0.1-0.2-6.4-4c-1.2-0.6-2.4-1.1-3.6-1.7
		C404.5,462.1,404.4,461.6,404.4,461.2z M414.4,460.4c-1.6-1.5-2.1-1.8-2.8-2.6c-1.1-0.7-1.1-0.7-3.2-2.8c-0.7-1-1.5-1.9-2-2.6
		c0-0.3,0-0.5,0-0.8c0.1-0.1,0.2-0.3,0.3-0.4c1.8-0.5,3.1-0.7,3.2-0.8c3.9-0.9,4.4-0.9,6.9-1.6c0.6,0.2,0.6,0.2,1.1,0.4
		c0.3,1,0.3,1,0.6,2.7c0,1.4,0,2.9,0,4.3c-0.3,2.3-0.7,4.7-1,7c-0.3,0.1-0.5,0.3-0.8,0.4C415.9,462.6,415.2,461.5,414.4,460.4z
		 M406.4,449.6c-1,0.2-2.1,0.5-3.1,0.7c-0.6,0-1.1,0.1-1.7,0.1c0-0.4,0-0.8,0.1-1.2c0.7-1.1,0.7-1.1,1.4-2.6
		c0.2-0.8,0.4-1.6,0.6-2.4c0.3-2.3,0.3-2.3,0.9-4.8c0.6-1.1,0.6-1.1,1.6-2.6c0.3-0.3,0.7-0.6,1.1-0.9c0.6-0.3,1.1-0.6,1.7-0.9
		c4.1-1.5,8.2-3,12.3-4.5c0.8-0.5,0.8-0.5,1.5-0.7c0.2,0,0.4,0.1,0.6,0.2c0,0.2,0,0.4,0,0.6c-0.2,0.7-0.4,1.4-0.6,2.1
		c-0.2,2.7-0.3,5.4-0.6,8.1c-0.6,2-0.6,2-1.3,3.7c-0.1,0-0.2,0-0.3,0c0,0.2-0.1,0.3-0.2,0.5c-0.5,0.3-1.1,0.7-1.6,1.1
		C413.1,447.8,406.7,449.4,406.4,449.6z M375.5,307.4h-50.9c-3.9,0-41.1-0.4-41.1-10.3c0-10.8,37.2-10.3,41.1-10.3h50.9
		c3.9,0,41.5-1.1,41.3,10.3C416.6,306.2,379.4,307.4,375.5,307.4z M374.1,280.8h-19.3l-3.3-149.1c0-2.2-3.2-2.2-3.3,0L345,280.8
		h-19.3c-2.9-25.6-14.2-52.7-26.5-81.3C278,126,330.5,112.2,346.8,88.8c0.9-1.3,1.3-3.3,3-3.4v0c0,0,0,0,0,0c0,0,0,0,0,0v0
		c1.7,0.1,2.1,2.1,3,3.4c16.4,23.4,68.8,37.2,47.6,110.6C388.3,228.1,377,255.2,374.1,280.8z M369,40.2c0-0.1,0-0.2,0-0.3
		c0.1,0,0.2,0,0.3,0c0-0.1,0-0.2,0-0.3c0.6-0.4,0.6-0.4,0.7-0.7c0.1,0,0.2,0,0.3,0c0-0.1,0-0.3,0.1-0.4c0.2-0.2,0.4-0.3,0.7-0.5
		c0.7-0.3,1.4-0.5,2.1-0.8c0.6,0,1.3,0,2,0c10.6,1.5,10.6,1.5,10.8,1.6c0.9,0.1,1.8,0.3,2.7,0.5c0.4,0.1,0.8,0.3,1.2,0.4
		c0,0.3,0,0.6,0,0.9c-0.2,0.2-0.4,0.3-0.7,0.5c0,0.1,0,0.2,0,0.3c-0.1,0-0.2,0-0.3,0.1c-0.9,1.2-1.9,2.4-2.9,3.6
		c-3.1,4.8-3.1,4.8-3.2,5.2c-0.1,0-0.2,0-0.3,0c-0.1,0.2-0.3,0.4-0.4,0.6c-0.6,0.4-1.2,0.8-1.8,1.2c-1.5,0.3-1.5,0.3-3.7,0.6
		c-0.7-0.2-1.4-0.3-2.1-0.5c-2.7-0.2-2.7-0.2-6.7-0.7c-1.5-0.1-3.1-0.1-4.7-0.2c-0.2-0.1-0.4-0.2-0.6-0.4c0-0.1-0.1-0.2-0.1-0.4
		c0.2-0.3,0.4-0.7,0.6-1.1c0.1,0,0.2,0,0.3-0.1c0.1-0.4,0.9-1.4,3.9-6.6c0.6-0.8,1.2-1.7,1.8-2.6C368.7,40.3,368.8,40.2,369,40.2z
		 M345.5,38.4c1.6-1.3,1.6-1.3,1.8-1.6c0.5-0.2,1-0.4,1.6-0.7c5.6-0.1,5.6-0.1,9.9,0c0.6,0.1,6.6,0.3,8,0.5c0.1,0,0.2,0.1,0.3,0.2
		c0,0.2,0,0.4,0,0.6c-0.3,0.6-0.6,0.7-1.9,2.6c-3.2,5.8-3.2,5.8-3.5,6.4c-1.3,1.7-1.3,1.7-2.2,2.6c-0.6,0.4-1.3,0.9-2,1.3
		c-0.9,0.2-1.8,0.4-2.7,0.6c-2.7-0.2-2.7-0.2-12.1-0.2c-0.5-0.1-1-0.1-1.5-0.2c-0.1-0.1-0.2-0.2-0.3-0.4c0.2-0.4,0.3-0.8,0.6-1.3
		c0.1,0,0.2,0,0.3,0c2.2-7.2,2.2-7.2,2.7-8.4C344.7,39.7,345.1,39,345.5,38.4z M322.6,40.1c0.8-0.9,0.8-0.9,1.7-1.7
		c0.4-0.2,0.8-0.4,1.2-0.7c7.7-1,7.7-1,15.2-1.7c1.6,0.1,1.6,0.1,1.8,0.3c0,0.3,0,0.5,0,0.8c-0.2,0.3-0.4,0.7-0.7,1
		c-0.4,0.9-0.8,1.8-1.2,2.7c-1.2,3.8-1.2,3.8-2.3,6.7c-0.5,0.6-0.9,1.3-1.5,2c-1.1,0.7-1.1,0.7-2.5,1.3c-1.5,0.2-2.9,0.5-4.4,0.8
		c-1.9,0-1.9,0-4.3,0.3c-0.4,0.2-0.4,0.2-7.6,1.2c-0.1-0.2-0.2-0.5-0.3-0.7c0.9-1.4,1-2,1.6-3.1c1.2-4.9,1.2-4.9,1.7-6.7
		C322.2,40.8,322.5,40.6,322.6,40.1z M298.2,53.5c0.3-3.5,0.3-3.5,0.8-6.9c0.2-0.5,0.3-1,0.6-1.6c0.4-0.6,0.8-1.3,1.2-1.9
		c0.3-0.2,0.5-0.5,0.8-0.7c0.6-0.3,1.3-0.7,2-1c5.4-1.1,7.8-1.4,9-1.7c6-1,6-1,6.9-1c0,0.1,0.1,0.2,0.2,0.3
		c-0.1,0.5-0.8,1.6-1.9,4.3c-0.5,1.9-0.9,3.9-1.4,5.8c-0.4,0.9-0.9,1.8-1.3,2.7c-0.3,0.4-0.7,0.9-1.1,1.3c-0.6,0.5-1.2,0.9-1.8,1.4
		c-0.8,0.3-2.8,0.6-2.9,0.8c-2.1,0.4-4.1,0.8-6.2,1.3c-4.2,1.2-4.2,1.2-6.1,1.5c0-0.3,0-0.7-0.1-1.1
		C297.3,55.7,297.8,54.6,298.2,53.5z M274.9,55c0.4-1.2,0.8-2.4,1.2-3.5c0.7-0.9,0.7-0.9,2.4-2.5c0.3-0.2,0.6-0.3,1-0.6
		c3.7-1.2,4.1-1.5,12.2-3.9c0.5-0.3,0.5-0.3,3.4-1c0.6,0,1.2,0,1.8,0c0,0.4-0.1,0.8-0.1,1.2c-0.2,0.5-0.3,1-0.6,1.6
		c-0.5,2.8-0.4,3.2-0.6,3.9c-0.1,1-0.2,1.9-0.3,2.9c-0.2,0.7-0.4,1.3-0.6,2c-1.2,2.2-1.2,2.2-2.1,3.4c-1.8,1.4-1.8,1.4-2.9,2
		c-2.1,0.7-4.3,1.4-6.5,2.1c-2.5,1-5,2-7.5,3.1c-0.6,0.1-1.2,0.3-1.8,0.4C273.8,65.4,274.3,62,274.9,55z M254.8,60.6
		c0.3-0.5,0.6-1,0.9-1.6c0.7-0.5,1.5-1,2.3-1.4c3.4-1.6,3.4-1.6,4-1.8c0.3-0.2,0.5-0.3,0.8-0.6c2.8-1.2,5.7-2.5,8.5-3.7
		c0.3,0,0.6,0,0.9,0c0,0.5,0,1,0,1.5c-0.1,0.2-0.2,0.4-0.3,0.6c-0.6,4.2-0.6,4.2-1,10c-1.1,2.4-1.1,2.4-1.9,3.6
		c-0.4,0.5-0.9,0.9-1.4,1.4c-1,0.7-6,3.1-11.4,6c-0.3,0-0.5,0.1-0.8,0.2c-0.1-1.8-0.2-3.7-0.3-5.6c-0.2-0.9-0.3-1.8-0.6-2.7
		c-0.1-1.2-0.2-2.3-0.3-3.5C254.5,62.3,254.6,61.5,254.8,60.6z M236.1,72.5c0.1-0.5,0.3-1,0.5-1.6c0.7-1.1,0.7-1.1,1.5-2
		c1.6-1.1,3.8-2.3,4.2-2.6c2.3-1.3,2.3-1.3,3.1-1.9c1.5-0.7,2.2-1.3,4.6-2.6c0.4-0.1,0.9-0.1,1.3-0.2c0.1,0.2,0.4,4.9,1,8.5
		c0,1.2,0,2.4,0,3.7c-0.3,1.3-0.3,1.3-0.8,2.6c-0.3,0.5-0.5,0.9-0.8,1.4c-1.2,0.9-2.4,1.9-3.7,2.8c-0.3,0.1-0.6,0.3-1,0.4
		c-2.5,1.7-5.1,3.4-7.6,5.2c-0.2,0-0.4,0.1-0.6,0.2c-0.1-0.1-0.2-0.2-0.3-0.3c0-1.2,0-2.4,0-3.7c-0.2-1.2-0.4-2.3-0.6-3.5
		c-0.2-0.5-0.4-1-0.7-1.5C236.1,75.8,236.1,74.2,236.1,72.5z M218.6,82.8c0.3-0.1,1.4-1.4,2.6-2.3c0.4-0.3,0.9-0.5,1.4-0.8
		c0-0.1,0-0.2,0-0.3c5.2-3.6,5.2-3.6,6-4c0-0.1,0-0.2,0-0.3c1.1-0.7,2.6-1.5,3-1.9c0.2,0,0.4-0.1,0.6-0.2c0.2,0,0.3,0.1,0.5,0.2
		c0.2,0.5,0.2,1.8,0.5,4.2c0.3,1.1,0.3,1.1,1,5.4c-0.1,3.2-0.1,3.2-0.4,4.9c-0.5,0.9-1,1.8-1.5,2.7c-0.8,0.8-0.8,0.8-1.1,0.9
		c0,0.1,0,0.2,0,0.3c-0.3,0.1-0.6,0.3-0.9,0.4c0,0.1,0,0.2,0,0.3c-0.4,0.1-0.4,0.1-2.4,1.7c0,0.1,0,0.2,0,0.3
		c-0.6,0.3-0.6,0.3-1.3,0.7c0,0.1,0,0.2,0,0.3c-0.3,0.1-0.3,0.1-1.9,1.4c0,0.1,0,0.2-0.1,0.3c-0.1,0-0.3,0-0.4,0.1
		c-0.7,0.6-1.5,1.3-2.3,2c-0.3,0-0.5,0.1-0.8,0.2c-0.3-0.8-0.3-0.8-0.5-4c-0.3-1.2-0.6-2.5-0.9-3.7c-1.2-3.2-1.2-3.2-1.5-4.6
		c0-0.8-0.1-1.5-0.1-2.3C218.3,84,218.5,83.4,218.6,82.8z M201.5,99.1c0.6-1.6,0.6-1.6,1.2-2.4c1.7-1.5,1.7-1.5,4.8-4.7
		c0.4-0.3,0.9-0.6,1.3-0.9c0.4-0.6,1.5-1.6,2.1-2c0.8-0.7,1.5-1.4,2.4-2.1c0.6-0.2,0.6-0.2,0.8-0.6c0.3,0,0.6-0.1,0.9-0.1
		c0.1,0.1,0.2,0.2,0.3,0.3c0.6,2.8,1.7,6.8,2.3,9.4c0,0.6,0.1,1.2,0.2,1.8c-0.3,3.2-0.3,3.2-0.6,4.7c-0.3,0.6-0.6,1.2-0.9,1.8
		c-1.5,1.6-2.4,2.3-7.2,7.8c-0.6,0.6-1.3,1.3-1.9,1.9c-0.1,0-0.3,0-0.4,0.1c-0.3-0.3-0.8-2-1.7-4.1c-0.6-1-1.2-2.1-1.8-3.1
		c-0.5-1.2-0.9-2.4-1.5-3.6c-0.1-0.7-0.2-1.4-0.3-2.1C201.4,100.5,201.4,99.8,201.5,99.1z M187.4,114.3c0.3-0.1,0.4-0.4,0.9-0.8
		c0.6-1,0.9-1.4,1.3-2c0.7-0.6,3-3.5,3.4-3.9c0.2-0.4,0.5-0.8,0.7-1.2c1.6-1.8,1.9-2,3-3.4c0.2-0.2,0.4-0.3,0.7-0.6
		c0.5,0,0.5,0,0.8,0.3c1.2,4.1,1.2,4.1,1.8,5.6c0.4,0.8,0.9,1.6,1.3,2.4c0.5,1.2,0.9,2.5,1.5,3.7c0.2,1.3,0.2,1.3,0.2,2.9
		c-0.3,1.1-0.3,1.1-0.9,2.4c-0.7,1.1-1.4,2.1-2.1,3.2c-0.1,0-0.2,0.1-0.3,0.2c-0.6,0.9-1.3,1.8-1.9,2.7c-0.3,0.2-0.5,0.5-0.8,0.7
		c-0.9,1.4-1.2,1.7-2,2.8c-0.3,0.4-0.7,0.8-1.1,1.2c-0.1,0-0.3,0-0.5,0.1c-1.1-2.5-1.1-2.5-2.4-5c-1-1.3-2.3-3.6-2.8-4.2
		c-0.6-1.2-0.6-1.2-1.2-2.9c0-0.8-0.1-1.7-0.1-2.5C187,115.3,187.2,114.8,187.4,114.3z M171.9,136.3c1.5-2.4,3-4.7,4.5-7.1
		c0.8-0.9,2.7-3.6,3.3-4.7c1.2-1.6,2.5-3.2,3.8-4.8c0.2,0,0.3,0,0.5,0c0.4,0.9,0.8,1.8,1.2,2.7c2.6,4.3,2.6,4.3,3.8,6.1
		c0.3,0.7,0.6,1.3,0.9,2c0.1,0.8,0.2,1.5,0.3,2.3c-0.1,2.3-0.1,2.3-0.4,3.2c-0.8,1.2-1.5,2-4.4,6.5c-1.1,1.3-1.6,2.3-2.4,3.4
		c-2.3,4-2.3,4-3.7,6.1c-0.2,0-0.4,0.1-0.6,0.2c-0.1-0.1-0.2-0.2-0.3-0.4c-0.2-0.6-0.4-1.2-0.6-1.9c-0.3-0.7-0.7-1.4-1.1-2.1
		c-0.9-1.4-1.9-2.8-2.9-4.2c-0.3-0.7-0.7-1.4-1.1-2.1c-0.3-1.9-0.3-1.9-0.7-3C171.8,137.8,171.9,137,171.9,136.3z M160.8,156.2
		c1.1-2.5,1.7-3.3,4.5-9c0.6-0.8,1.7-3,3.6-5.6c0.6,0,0.6,0,0.8,0.2c0.4,0.9,0.8,1.9,1.2,2.8c2.7,4.1,2.8,4.5,3.6,5.7
		c0.6,1.3,0.6,1.3,1.4,4.7c0,0.7-0.1,1.4-0.1,2.1c-0.2,0.8-0.4,1.5-0.6,2.3c-2.3,4.8-4.5,10-5.2,11.1c-0.1,0-0.2,0-0.3,0.1
		c-0.2-0.2-0.5-0.5-0.7-0.7c-0.5-0.8-1-1.6-1.5-2.4c-1.5-1.5-1.9-2-2.5-2.5c-1-1.1-2-2.3-3-3.4c-0.3-0.7-0.6-1.4-0.9-2.1
		c-0.1-0.5-0.2-1-0.3-1.5C160.7,157.4,160.8,156.8,160.8,156.2z M151.3,178.5c2.1-5.1,4.2-10.3,6.3-15.5c0.1-0.2,0.3-0.4,0.5-0.6
		c0.2,0,0.3,0,0.6,0c2.4,3.4,3.1,4.1,3.3,4.4c1.8,1.5,2,1.8,2.3,2c0.4,0.5,0.9,1,1.3,1.5c1.3,2.4,1.3,2.4,1.6,3.2
		c0.3,1.5,0.3,1.5,0.3,3c-0.6,1.9-1.1,3.2-2.3,6.9c-1,2.8-2,5.6-3,8.4c-0.2,0-0.4,0.1-0.6,0.2c-0.6-0.7-0.6-0.7-1-1.4
		c-2-1.9-2-1.9-2.2-2.2c-0.9-0.6-1.8-1.3-2.7-2c-0.7-0.8-1.6-1.4-3-3.1c-0.7-1.1-0.7-1.1-1.3-2.4c0-0.3-0.1-0.6-0.1-1
		C151.2,179.5,151.3,179,151.3,178.5z M145.1,200.6c2.6-10.3,2.9-10.9,3.1-12.1c0.3-0.5,0.9-2.7,1.2-3.2c0.4,0,0.4,0,1.2,0.6
		c0.2,0.5,0.2,0.5,3.5,3.7c0.3,0.1,1.1,0.9,2,1.6c1.4,1.5,1.4,1.5,2.7,3.2c0.3,1.1,0.7,2.2,1.1,3.3c0,0.7-0.1,1.4-0.1,2.1
		c-1.2,4.5-1.6,6.8-1.7,6.8c-0.4,2-0.7,2.8-1.3,6.1c-0.1,0.2-0.2,0.3-0.3,0.5c-0.1,0.1-0.3,0.2-0.5,0.3c-0.3-0.2-0.5-0.3-0.8-0.5
		c-1.5-1.6-1.5-1.6-2.7-2.7c-0.5-0.2-1.8-1-1.9-1.3c-0.4-0.2-0.8-0.4-1.2-0.7c-0.8-0.8-1.6-1.6-2.4-2.5c-0.5-0.7-0.9-1.5-1.4-2.3
		c-0.1-0.5-0.3-0.9-0.4-1.4C145.1,201.6,145.1,201.1,145.1,200.6z M141.1,218.7c0.6-3.4,1.3-6.9,2-10.3c0.2-0.3,0.3-0.5,0.5-0.8
		c0.2,0,0.4,0,0.6,0c0.5,0.6,1,1.2,1.5,1.8c1.6,1.3,1.6,1.3,1.7,1.6c1.6,1.2,3.3,2.4,4.9,3.7c1.1,1.2,1.1,1.2,1.7,2.1
		c0.3,1,0.7,1.9,1.1,2.9c-0.1,2.8-1,10.9-1.3,15.3c-0.2,0.3-0.2,0.3-0.8,0.4c-1-0.8-2.1-1.6-3.2-2.4c-4.4-2.1-4.4-2.1-6.8-3.5
		c-1.1-0.9-1.8-1.6-2.1-1.7c-0.2-0.4-0.3-0.8-0.6-1.2c-0.2-1.1-0.2-1.1-0.2-2.3C140.6,222.4,140.9,220.5,141.1,218.7z M139.5,232.5
		c0.1-0.2,0.2-0.4,0.3-0.6c0.2,0,0.4,0,0.7,0c0.3,0.2,0.6,0.5,0.9,0.7c7.1,3.8,7.5,3.9,8,4.3c0.2,0.1,0.4,0.2,0.7,0.3
		c0.6,0.6,1.2,1.1,1.8,1.8c0.2,0.5,0.5,1,0.7,1.4c0.2,0.7,0.3,1.3,0.6,2c0,4.8,0.1,9.6,0.1,14.5c-0.1,0.1-0.2,0.3-0.3,0.4
		c-0.1,0-0.3,0-0.5,0.1c-1.7-1.2-1.7-1.2-3.5-2.2c-3.2-1.4-3.4-1.6-6.2-2.7c-0.7-0.4-1.4-0.9-2.1-1.3c-0.5-0.4-1-0.9-1.5-1.4
		c-0.2-0.5-0.5-1.1-0.7-1.6C139,244.2,139.1,237.7,139.5,232.5z M139.8,270.1c-0.7-7.1-0.7-7.1-1-11.7c0-1.2,0-2.4,0-3.6
		c0-0.1,0.1-0.3,0.2-0.4c0.2,0,0.4,0,0.7,0c0.7,0.4,1.5,0.9,2.3,1.3c0.5,0.2,1,0.3,1.5,0.5c0.8,0.5,3.6,1.6,6,2.8
		c0.6,0.6,1.5,1.1,2.1,1.8c0.1,0.3,0.6,0.6,1.9,2.4c0.1,0.4,0.3,0.8,0.4,1.2c0,0.6,1.1,8.7,1.5,10.7c0.1,1.3,0.2,2.7,0.3,4
		c-0.2,0-0.4,0.1-0.6,0.2c-0.3-0.2-0.6-0.5-0.9-0.8c-0.5-0.2-0.9-0.5-1.5-0.8c-4.3-1.2-4.3-1.2-4.9-1.4c-1.6-0.3-1.6-0.3-3.7-0.9
		c-0.6-0.4-1.2-0.7-1.9-1.1c-0.6-0.7-1.3-1.5-2-2.3C140.3,271.5,140,270.8,139.8,270.1z M144.2,294.8c-0.7-3.4-1.5-6.8-2.3-10.3
		c-0.3-2.1-0.6-4.2-0.9-6.3c0.1-0.1,0.2-0.3,0.3-0.4c0.1,0,0.2,0,0.3,0c1,0.4,2,0.8,3,1.2c3.5,1,3.5,1,6.1,1.5
		c2.4,1.2,2.4,1.2,3.8,2.1c0.3,0.6,0.6,0.7,1.7,2.1c0.4,1,0.8,1.9,1.2,2.9c0.7,3.4,1.4,6.8,2.1,10.2c0.3,0.7,0.3,0.7,0.4,1.5
		c0,0.3-0.1,0.6-0.2,0.9c-0.2,0-0.5,0.1-0.7,0.1c-0.3-0.1-0.7-0.3-1-0.4c-4.2-0.8-7.1-1.1-7.2-1.3c-0.7-0.2-1.4-0.3-2.1-0.5
		c-0.6-0.3-1.3-0.6-1.9-0.9C145,295.7,145,295.7,144.2,294.8z M151.2,318.8c-0.2-0.3-0.4-0.7-0.6-1c-2.3-7-2.3-7-4.1-13.3
		c-0.1-0.7-0.3-1.4-0.5-2.2c0-0.5,0-1,0-1.5c0.3,0,0.6,0,0.9,0c0.6,0.2,1.3,0.5,1.9,0.8c2.8,0.5,2.9,0.6,5.8,1
		c0.8,0.2,1.7,0.4,2.5,0.7c2.5,1.2,2.5,1.2,3.6,1.9c0.4,0.6,0.9,1.2,1.3,1.8c2.8,7.3,3.1,7.8,3.6,9.6c0.9,1.9,0.9,1.9,1.6,4.1
		c0,0.3,0,0.5,0,0.8c-0.1,0-0.3,0.1-0.5,0.2c-0.3-0.2-0.3-0.2-2.1-0.5c-5.2-0.2-5.2-0.2-7.6-0.1c-0.6-0.1-1.3-0.1-2-0.3
		c-0.8-0.2-1.5-0.4-2.3-0.7C152,319.6,152,319.6,151.2,318.8z M160.8,341.9c-0.5-0.7-0.9-1.3-1.4-2c-2.6-5.5-2.7-6.2-3.4-7.3
		c-1-2.6-2-5.2-3-7.9c0-0.2,0-0.4,0-0.7c0.1-0.1,0.2-0.2,0.3-0.3c0.6,0,2.5,0.5,4.3,0.7c1.7,0,3.4,0,5.1,0c1.2,0.1,2.4,0.3,3.6,0.5
		c0.4,0.2,0.9,0.4,1.3,0.6c0.6,0.5,1.3,1,1.9,1.5c0.2,0.2,0.4,0.5,0.6,0.8c1.2,2.9,1.7,3.8,3.9,8.5c0.4,0.6,0.4,0.6,3,6.2
		c0,0.3,0,0.7,0.1,1c-0.2,0.1-0.4,0.2-0.6,0.3c-0.1-0.1-0.3-0.2-0.4-0.2c-0.9-0.1-1.7-0.2-2.6-0.4c-3.4,0.1-5.4,0.3-7.3,0.3
		c-2.7-0.2-2.7-0.2-2.8-0.4c-0.6-0.2-1.1-0.3-1.7-0.5C161.5,342.4,161.2,342.1,160.8,341.9z M170.9,361.5c-1.7-3-3.5-6-5.2-9.1
		c-0.9-1.7-1.7-3.4-2.6-5.1c0-0.2,0-0.5,0-0.7c0.9-0.1,0.9-0.1,10.2-0.2c2.8,0.4,2.8,0.4,3,0.5c2,0.6,2,0.6,3.3,1.3
		c0,0.1,0,0.2,0,0.3c0.4,0.3,0.8,0.6,1.2,0.9c5.4,8.1,5.8,8.9,6.9,10.4c0.2,0.6,0.2,0.6,0.2,1.3c-0.9,0.2-0.9,0.2-4.5,0.4
		c-2.1,0.3-4.2,0.7-6.3,1c-1.5-0.2-3.1-0.4-4.7-0.5C171.9,361.9,171.4,361.7,170.9,361.5z M184.8,380.7c-0.4-0.3-0.9-0.6-1.3-0.9
		c-4.7-6-4.8-6.3-5.1-6.5c-1.3-2.1-2.7-4-3.9-5.9c-0.2-0.5-0.5-1-0.7-1.5c0-0.1,0.1-0.2,0.2-0.3c2.1,0.1,2.1,0.1,6.7,0
		c2.6-0.6,2.6-0.6,5.8-1.1c0.4,0,0.8,0,1.2,0c0.9,0.2,1.7,0.4,2.6,0.7c0.6,0.6,0.9,0.7,1.8,1.8c0.1,0.5,0.1,0.5,0.4,0.6
		c0.9,1.2,1.7,2.4,2.6,3.7c1.8,2.2,3.6,4.5,5.5,6.7c0,0.2,0.1,0.5,0.1,0.8c-0.2,0.2-2.9,0.8-6,2c-0.4,0.3-0.4,0.3-2.2,0.9
		c-1.3,0.2-2.7,0.3-4,0.5c-0.6-0.2-1.3-0.3-2-0.5C186,381.3,185.4,381,184.8,380.7z M204.3,401.3c-1.2-0.6-2.3-1.2-3.5-1.8
		c-0.1-0.3-0.5-0.5-6.6-6.8c-2-2.3-4-4.7-6-7.1c0-0.2-0.1-0.3-0.1-0.5c0.2-0.1,0.3-0.2,0.5-0.3c1.2-0.1,2.3-0.2,3.5-0.3
		c5.6-1.8,6.1-2.1,7-2.2c0.3-0.2,0.3-0.2,2.6-0.3c0.7,0.1,1.4,0.3,2.1,0.4c0.7,0.5,1.4,1.1,2.1,1.6c0.7,0.9,0.7,0.9,5.7,5.9
		c0.1,0,0.2,0,0.3,0.1c0.9,1.2,1.5,1.6,1.6,1.9c1,0.7,1,0.7,5.4,4.6c0,0.2,0,0.4,0,0.6c-0.1,0.1-0.3,0.2-0.4,0.3
		c-0.6,0.1-1.2,0.3-1.8,0.5c-1.8,1.1-1.8,1.1-5.7,3.2c-2.6,0.6-2.6,0.6-4.3,0.9C205.8,401.6,205.1,401.5,204.3,401.3z M221.4,416.9
		c-0.4-0.2-0.9-0.3-1.3-0.5c-1-0.8-1-0.8-1.1-1.1c-1.8-1.3-3.5-2.7-5.3-4c-1.5-1.5-2.1-1.8-3.8-3.3c-0.9-0.9-1.8-1.9-2.7-2.9
		c0-0.2-0.1-0.3-0.2-0.5c0.1-0.1,0.2-0.3,0.3-0.4c2.8-0.6,2.8-0.6,5-1.2c2.6-1.1,2.6-1.1,5.8-2.9c1.1-0.3,1.1-0.3,2.6-0.5
		c0.7,0.1,1.5,0.2,2.2,0.4c0,0.1,0.1,0.2,0.1,0.3c0.4,0.2,0.8,0.4,1.2,0.6c3.6,2.6,5.2,4.1,10.1,7.7c0.3,0.2,0.6,0.3,0.9,0.5
		c0,0.3,0.1,0.5,0.1,0.8c-0.9,0.4-1.7,0.8-2.6,1.3c-1.8,1.3-3.6,2.6-5.4,4c-1.2,0.5-2.4,1-3.6,1.5
		C223.1,416.7,222.2,416.8,221.4,416.9z M239,428.1c-0.6-0.2-1.2-0.3-1.8-0.5c-1.4-0.6-3.4-1.9-3.7-1.9c0-0.1,0-0.2,0-0.3
		c-0.1,0-0.3,0-0.4,0c0-0.1,0-0.2,0-0.3c-6.9-4.5-7-4.7-7.8-5.1c0-0.2-0.1-0.4-0.2-0.7c2.7-1.2,2.7-1.2,5-2.6c1.6-1,3.2-2.1,4.8-3.2
		c0.8-0.3,1.6-0.6,2.4-0.9c0.4-0.1,0.9-0.1,1.3-0.2c0.7,0.1,1.5,0.2,2.2,0.4c1.2,0.5,1.4,0.8,2.4,1.2c6.2,3.8,6.7,3.9,6.9,4.2
		c0.5,0.2,1,0.4,1.5,0.7c0.6,0.4,1.3,0.9,2,1.4c0,0.1,0,0.3,0,0.4c-1.3,0.9-2.7,1.7-4,2.6c-1.1,0.9-2.2,1.8-3.4,2.7
		c-1,0.5-2.1,1-3.2,1.5c-0.7,0.1-0.8,0.3-2,0.5C239.3,428,239.3,428,239,428.1z M257.3,438.3c-3.2-1.5-6.3-3-9.5-4.4
		c-1.5-0.8-2.9-1.6-4.4-2.4c-0.4-0.4-0.4-0.4-0.4-0.8c0.1-0.1,0.2-0.2,0.3-0.3c0.8-0.3,1.6-0.6,2.4-0.9c1.3-0.8,1.3-0.8,1.9-1
		c0.9-0.8,1.9-1.3,4.9-3.6c0.7-0.3,1.5-0.7,2.2-1.1c0.8-0.2,1.6-0.4,2.4-0.6c0.6,0,1.2,0,1.9,0c0.9,0.3,1.7,0.6,2.6,0.9
		c0.8,0.5,0.8,0.5,5.6,2.6c1.7,0.7,3.4,1.3,5.1,2c0.1,0.1,0.2,0.2,0.3,0.3c0,0.2,0,0.3,0,0.5c-0.9,0.7-1.8,1.5-2.7,2.2
		c-0.9,1.1-1.3,1.4-2.7,3.2c-0.4,0.3-0.6,0.6-1.3,1.2c-0.1,0.3-0.1,0.3-2.7,2.2c-0.7,0.2-1.4,0.5-2.1,0.8c-0.6,0-1.1,0.1-1.7,0.1
		C259,438.7,259,438.7,257.3,438.3z M273.2,513.7c-0.1,0-0.2,0.1-0.3,0.1c-0.6,0.8-1.2,1.6-1.8,2.5c-0.2,0.1-0.4,0.2-0.7,0.3
		c-0.3-0.2-0.6-0.4-0.9-0.6c-1.8-2.1-3-3.1-3.7-4c-0.2-0.1-0.3-0.2-0.6-0.4c-0.6-0.9-0.6-0.9-5-5.5c0-0.3-0.1-0.7-0.2-1
		c0.1-0.1,0.2-0.3,0.3-0.4c1.2-0.7,2.3-1.5,3.5-2.3c0.1,0,0.3,0,0.5,0c1.1,0.8,1.1,0.8,2.5,2.2c0.3,0.3,0.5,0.7,0.8,1
		c3.1,2.9,3.3,3.2,3.8,3.5c1.5,1.8,1.5,1.8,2.1,2.4c0,0.3,0.1,0.7,0.1,1C273.5,513,273.3,513.3,273.2,513.7z M275.8,509.8l-0.3,0.3
		c-0.1,0.1-0.4,0-0.7-0.2l-8.9-8.5c-0.3-0.3-0.4-0.6-0.3-0.7l0.3-0.3c0.1-0.1,0.4,0,0.7,0.2l8.9,8.5
		C275.8,509.4,275.9,509.7,275.8,509.8z M277.9,507.7l-0.3,0.3c-0.1,0.1-0.4,0-0.7-0.2l-8.9-8.5c-0.3-0.3-0.4-0.6-0.3-0.7l0.3-0.3
		c0.1-0.1,0.4,0,0.7,0.2l8.9,8.5C277.9,507.3,278,507.6,277.9,507.7z M280,505.6l-0.3,0.3c-0.1,0.1-0.4,0-0.7-0.2l-8.9-8.5
		c-0.3-0.3-0.4-0.6-0.3-0.7l0.3-0.3c0.1-0.1,0.4,0,0.7,0.2l8.9,8.5C280,505.2,280.1,505.5,280,505.6z M288.1,495.7
		c-0.6,1.7-0.6,1.7-1.2,3c-1.5,2-1.8,2.1-2,2.4c-1,0.9-2,1.8-3,2.7c-0.2,0-0.4,0.1-0.6,0.1c-0.5-0.4-1-0.9-1.5-1.3
		c-0.2-0.3-0.4-0.6-0.6-0.9c-1.1-0.9-1.8-1.7-2.7-2.5c-0.3-0.5-1.2-1.1-1.6-1.6c-1.4-1.1-1.4-1.1-1.5-1.4c-0.5-0.6-1.1-1.1-1.6-1.8
		c0-0.1,0-0.2,0-0.3c0.2-0.3,0.4-0.7,0.7-1.1c1.5-1.4,1.5-1.4,1.8-1.5c0.1-0.3,0.1-0.3,2.7-2.7c0.4-0.3,0.9-0.6,1.3-1
		c0.7-0.8,1.3-1.3,1.4-1.6c1.7-1.4,4.7-4.4,6-5.4c0.2,0,0.4,0,0.6,0c0.3,0.6,0.9,4.1,1.4,6.2c0.4,3.3,0.4,3.3,0.6,5.5
		C288.2,493.5,288.1,494.6,288.1,495.7z M287.6,448.7c-0.4,0.1-0.9,0.1-1.3,0.2c-0.3-0.2-0.3-0.2-1.1-0.4c-0.2-0.3-0.2-0.3-0.2-0.8
		c1-0.7,2-1.5,3-2.3c0.2,0,0.4,0,0.7,0c0,0.3,0,0.6,0,0.9c-0.1,0.3-0.2,0.7-0.3,1.1C288.2,447.8,287.9,448.2,287.6,448.7z
		 M288.9,454.5c0.6-3,0.6-3,1.2-4.9c0.2-0.3,0.3-0.6,0.6-0.8c0.2,0,0.4,0,0.7,0c0.3,0.6,0.7,1.2,1,1.9c0.9,1.1,1.9,2.1,2.9,3.2
		c1.2,0.6,2,1.2,3.1,1.8c0.6,0.5,1.2,1.1,1.9,1.6c0.7,0.9,1.4,1.9,2.1,2.9c0.2,0.5,0.3,0.9,0.6,1.4c0.6,2.7,0.6,2.7,0.9,3.5
		c0.2,0.6,0.3,1.3,0.6,2c0.4,1,0.9,1.9,1.4,2.9c0.1,0,0.2,0,0.3,0.1c0.7,1.3,0.9,1.4,1.2,1.9c0.7,0.7,1.7,1.4,2.5,2.3
		c0.1,0.1,0.3,0.2,0.5,0.3c0,0.2,0,0.4,0,0.6c-0.5,0.3-2.5,0.9-3.7,1.5c-4,1.2-4,1.2-5.1,1.4c-1.1,0-2.3,0.1-3.4,0.2
		c-0.7-0.2-1.4-0.3-2.1-0.5c-0.6-0.4-1.3-0.8-2-1.2c-0.3-0.3-0.5-0.7-0.8-1c-0.6-1.2-1.1-2.4-1.7-3.6c-1.2-3.5-1.2-3.5-2.2-7.6
		c-0.4-4.6-0.4-4.6-0.4-6.1C288.7,456.7,288.8,455.6,288.9,454.5z M297.6,488.4c-1.6,1.5-1.8,2-3.7,3.7c-1.8,1.9-1.8,1.9-2.2,2.1
		c-0.2,0-0.4,0.1-0.6,0.1c-0.2-1.2-0.2-2.5-0.5-5.3c-0.6-2.8-0.6-2.8-1.7-7.1c0-0.5-0.1-1-0.2-1.5c0.3-1.7,0.3-1.7,0.8-3
		c0.3-0.2,0.3-0.2,1-0.2c0.6,1,1.3,2,2,3c0.2,0.2,0.4,0.4,0.7,0.6c1.5,2.1,1.5,2.1,2.9,3.8c0.5,0.3,0.5,0.3,2.1,2
		c0,0.2,0.1,0.5,0.1,0.7C298.1,487.7,297.8,488,297.6,488.4z M324.4,487.8c-0.4,0.2-0.9,1-1.4,1.4c0,0.1,0,0.2,0,0.3
		c-0.3,0.1-0.8,0.5-1.4,0.8c-1.4,0.1-2.7,0.2-4.2,0.3c-3.7-0.3-3.7-0.3-6.6-0.8c-1.1-0.4-2.3-0.8-3.4-1.2c-1.1-0.5-2.3-1-3.4-1.6
		c-2.7-1.6-3.1-2-3.8-2.3c-0.2-0.3-0.2-0.3-0.5-0.4c0-0.1,0-0.2,0-0.3c-0.1,0-0.2,0-0.3,0c0-0.1,0-0.2,0-0.3
		c-0.2-0.1-0.4-0.2-0.7-0.3c-0.4-0.6-0.4-0.6-0.9-0.9c-0.2-0.5-0.3-0.9-0.6-1.4c-0.1,0-0.2-0.1-0.3-0.1c0-0.1-0.1-0.2-0.1-0.4
		c1.5-0.1,3-0.2,4.6-0.3c1.1-0.2,2.2-0.4,3.3-0.7c3.1-1.2,3.1-1.2,7.1-2.4c1.3-0.3,2.6-0.6,3.9-0.9c4.2,0.1,8.4,0.2,12.6,0.2
		c0,0.4,0,0.8-0.1,1.3c-0.3,0.7-0.3,0.7-1,1.8c-0.2,1.3-0.4,2.7-0.7,4.1C326.2,484,325.5,485.8,324.4,487.8z M350.4,480.7
		c-2.3,1-4.5,2-6.9,3.1c-4.4,1.7-8.7,3.4-13.1,5c-2.4,0.6-2.4,0.6-3.4,0.7c0-0.3,0-0.6,0-1c0.4-0.8,0.9-1.5,1.3-2.3
		c1.2-3.4,1.2-3.4,1.7-5.7c0.3-0.8,0.7-1.6,1.1-2.4c0.1,0,0.2,0,0.3,0c0-0.1,0-0.2,0-0.3c0.1,0,0.2,0,0.3,0c0-0.1,0-0.2,0-0.3
		c0.5-0.3,0.5-0.3,1.5-0.7c0.8-0.1,1.5-0.1,2.3-0.2c0.8,0,1.5,0.1,2.3,0.2c5.8,1,6.1,1.2,7.4,1.4c0.2,0.2,4.3,1.3,5.2,1.8
		C350.4,480.3,350.4,480.5,350.4,480.7z M362.1,481.9c-0.5,0-0.9,0.1-1.5,0.1c-0.6-0.4-1.3-0.8-2-1.2c-1.5-0.7-3.1-1.4-4.7-2.1
		c-0.8-0.2-1.7-0.5-2.5-0.7c-1.2-0.6-1.9-0.7-2.9-1.1c-1.5-0.4-3.1-0.8-4.6-1.2c0-0.4,0-0.4,0.3-0.9c0.6-0.4,1.2-0.9,1.8-1.4
		c3.1-3.1,3.3-3.5,3.9-3.8c0.2-0.3,0.4-0.5,0.6-0.8c0.9-0.6,1.7-1.3,2.6-2c0.7-0.3,1.5-0.6,2.2-0.9c1.1,0,2.2,0,3.3-0.1
		c1,0.2,2,0.5,3,0.8c0.9,0.4,1.8,0.7,2.7,1.1c4.7,2.4,5.2,2.5,6.1,3.2c4.4,2.4,4.4,2.4,5.8,3.3c0,0.2,0,0.4,0,0.6
		c-1.5,1-1.5,1-2.6,1.6c-0.7,0.6-1.5,1.2-2.3,1.8c-1.2,0.6-1.2,0.6-1.9,1.2c-2.6,1.2-4.7,1.9-4.8,2
		C363.9,481.4,363,481.7,362.1,481.9z M384.5,489.9c-0.5,0.1-0.9,0.2-1.5,0.4c-3.7-0.4-4-0.6-5.3-0.8c-1.9-0.5-3.8-1.1-5.7-1.7
		c-3.1-1.3-3.1-1.3-6.7-3c-0.2-0.2-0.4-0.4-0.6-0.6c0-0.2,0.1-0.3,0.1-0.5c1.1-0.4,2.2-0.8,3.3-1.2c0.9-0.4,1.9-0.9,2.9-1.4
		c2.7-1.7,4-2.7,4.9-3.2c0.2-0.3,0.2-0.3,1.9-1.3c1.2-0.4,2.4-0.7,3.6-1.1c1.2,0,1.2,0,5.6,0.3c1.9,0.7,3.9,1.3,5.9,2.1
		c0,0.1,0,0.2,0,0.3c0.2,0,0.3,0,0.6,0c0.2,0.2,0.3,0.4,0.5,0.7c0,0.3,0,0.5,0,0.8c-0.9,1.4-1.8,2.7-2.7,4.1
		c-0.3,0.1-1.2,1.3-1.5,1.5c-1.7,2.1-2,2.3-2.1,2.6C385.2,489.6,385.2,489.6,384.5,489.9z M402.5,484.9c-1.4,0.9-2.9,1.7-4.3,2.6
		c-1.5,0.6-2.9,1.1-4.4,1.8c-1.2,0.3-2.5,0.6-3.7,0.9c-0.2,0-0.5-0.1-0.7-0.2c0-0.2,0.1-0.4,0.1-0.6c1-1.1,1.4-1.4,1.8-1.9
		c0.3-0.2,1.1-1.2,1.8-2c1.4-1.9,2.5-3.7,2.9-4.2c0.3-0.7,0.3-0.7,0.6-0.9c0.3,0,0.7,0,1.1,0c1.6,1.1,3.2,2.1,4.8,3.2
		c0,0.3,0.1,0.5,0.2,0.8C402.7,484.6,402.6,484.8,402.5,484.9z M414.3,489.3c-2.4-1.3-2.7-1.6-3.1-1.7c0-0.1,0-0.2,0-0.3
		c-3.5-2.9-3.5-2.9-3.9-3c0-0.1,0-0.2,0-0.3c-0.8-0.5-1.5-1.1-2.3-1.6c0-0.1,0-0.2-0.1-0.3c-0.3-0.1-0.5-0.2-0.8-0.4
		c0-0.1,0-0.2-0.1-0.3c-1.2-0.8-2.5-1.6-3.8-2.5c-0.1-0.1-0.2-0.3-0.3-0.5c0.2-0.1,0.3-0.3,0.5-0.4c1.1-0.2,2.3-0.5,3.4-0.8
		c1.1-0.4,2.3-0.8,3.4-1.2c1.4-0.3,2.8-0.7,4.3-1.1c1.5,0,3,0,4.6,0c1.1,0.2,2.3,0.5,3.4,0.8c1.8,0.7,1.8,0.7,2.7,1.3
		c0,0.1,0,0.2,0,0.3c1.2,0.8,1.5,1.2,1.9,1.3c0.1,0.3,0.1,0.3,0.6,0.9c0.1,0,0.2,0.1,0.3,0.1c0,0.1,0,0.2,0,0.3c0.1,0,0.2,0,0.3,0
		c0.1,0.2,0.2,0.5,0.3,0.7c0.5,0.2,0.6,0.5,0.9,0.6c2.8,2.9,2.8,2.9,2.9,3.2c0.1,0,0.2,0,0.3,0c0.1,0.2,0.2,0.5,0.3,0.7
		c0.1,0,0.2,0,0.3,0c0.7,1,1.8,2.3,2.7,3.6c0,0.3,0,0.6-0.1,1c-0.1,0-0.2,0-0.3,0c0,0.1,0,0.2,0,0.3c-0.3,0.1-0.7,0.2-1,0.3
		c-4-0.7-4-0.7-5.6-0.8c-1.4,0-2.7,0.1-4.1,0.1c-1.1,0.1-2.2,0.2-3.3,0.4c-0.7,0-1.4-0.1-2.1-0.1
		C415.9,489.8,415.1,489.6,414.3,489.3z M423.2,498.7c-0.7-0.6-1.3-1.4-1.6-1.5c-0.1-0.3-0.4-0.4-0.8-0.9c-0.5-0.4-0.5-0.4-2.9-2.9
		c0-0.2-0.1-0.5-0.1-0.7c0.1-0.1,0.2-0.2,0.3-0.3c4.3-0.4,4.3-0.4,7.1-0.4c1.2,0.1,2.3,0.2,3.5,0.3c0.2,0.1,0.5,0.3,0.7,0.4
		c0,0.7,0,0.7-0.3,1.1c-3.3,3.3-4.4,4.2-4.6,4.5C424,498.5,423.6,498.6,423.2,498.7z M425.1,501.4l-0.3-0.3c-0.1-0.1,0-0.4,0.3-0.7
		l8.9-8.9c0.3-0.3,0.6-0.4,0.7-0.3l0.3,0.3c0.1,0.1,0,0.4-0.3,0.7l-8.9,8.9C425.6,501.3,425.3,501.5,425.1,501.4z M427.2,503.3
		l-0.3-0.3c-0.1-0.1,0-0.4,0.3-0.7l8.9-8.9c0.3-0.3,0.6-0.4,0.7-0.3l0.3,0.3c0.1,0.1,0,0.4-0.3,0.7l-8.9,8.9
		C427.7,503.3,427.4,503.5,427.2,503.3z M429.3,505.3L429,505c-0.1-0.1,0-0.4,0.3-0.7l8.9-8.9c0.3-0.3,0.6-0.4,0.7-0.3l0.3,0.3
		c0.1,0.1,0,0.4-0.3,0.7l-8.9,8.9C429.8,505.3,429.5,505.5,429.3,505.3z M441.5,503.3c-0.2,0.1-0.3,0.2-0.6,0.3
		c-1.5,1.8-1.5,1.8-2.4,2.6c-0.2,0.1-0.4,0.3-0.6,0.4c-1.7,1.9-1.7,1.9-3.9,4.2c-0.3,0-0.6,0.1-0.9,0.2c-0.2-0.2-0.4-0.5-0.6-0.7
		c-0.3-0.7-0.7-1.5-1.1-2.2c0-0.5,0-1,0-1.6c0.7-1,1.2-1.4,3-3.3c1.6-1.3,1.6-1.3,2.9-2.8c0.1,0,0.2,0,0.3-0.1
		c0.8-0.8,1.6-1.6,2.5-2.4c0.2,0,0.3-0.1,0.5-0.2c0.3,0,0.5,0.1,0.8,0.1c0.9,0.6,1.7,1.3,2.6,1.9c0,0.3,0.1,0.5,0.2,0.8
		C443.4,501.5,441.6,503,441.5,503.3z M463.1,423.7c-0.2,0.7-0.4,1.4-0.6,2.1c-0.7,0.9-0.7,0.9-1.6,1.6c-9.1,4.9-13.7,7.2-14.2,7.6
		c-0.3,0-0.7,0.1-1.1,0.2c-0.1,0-0.2-0.1-0.3-0.1c0-1.3,0.3-2.3,0.5-3.4c0-2.1,0-4.3,0-6.4c0.1-1.1,0.3-2.2,0.4-3.4
		c0.3-0.7,0.5-1.4,0.8-2.1c0.3-0.1,0.3-0.4,2.2-1.9c1.7-1,1.7-1,2-1.4c0.5-0.2,1-0.4,1.5-0.6c5.7-3.6,6.5-3.9,7.4-4.6
		c0.4-0.2,0.9-0.4,1.3-0.6c0.2,0,0.4,0,0.6,0c0,0.1,0.1,0.2,0.2,0.3c0,1-0.1,1.9-0.2,2.9c0.3,1.9,0.7,3.8,1,5.7
		C463.1,421,463.1,422.3,463.1,423.7z M458.8,284.6c1-8.2,2.8-18.2-3.9-24.6c-20.2-19.2-43.4-2.3-48.9,21.1
		c-0.6,2.4-0.9,2.8-3.3,2.2c-6.6-1.5-13.8-1.7-20.5-2.3c-0.9-0.1-0.9-1.1-0.8-1.8c3.8-25.2,15.7-54.9,32.7-73.8
		c25.8-28.6,68.6-27.8,87.8,8.1c11.7,21.8,5.8,49.6-13.7,63.7c-8.2,5.9-13.4,7.4-23.6,8.8C463,285.6,458.5,286.9,458.8,284.6z
		 M482.2,412.2c-0.6,1.3-0.6,1.3-1,1.7c-3.2,2.4-3.6,2.6-4.4,3.4c-0.9,0.5-1.2,0.8-2.4,1.5c-0.6,0.4-1.1,0.9-1.7,1.3
		c-4.1,2.5-4.5,2.9-5.9,3.6c-0.2,0-0.5,0.1-0.7,0.1c0-0.2-0.1-0.4-0.2-0.6c0-0.8,0-1.5,0-2.3c-0.3-2.7-0.6-5.3-0.9-8
		c0.1-0.9,0.2-1.8,0.3-2.7c0.2-0.5,0.4-1.1,0.6-1.6c0.4-0.4,0.7-0.9,1.9-2c0.4-0.1,0.4-0.1,6.6-4.9c1.7-1.5,1.7-1.5,5-4.1
		c0.3,0,0.5,0,0.8,0c0,0.2,0.1,0.4,0.2,0.6c0,0.6,0,1.3,0,2c1.2,4.2,1.4,4.7,2.3,8.5C482.4,409.7,482.3,411,482.2,412.2z
		 M499.6,397.2c-0.2,0.5-0.4,0.9-0.6,1.4c-0.3,0.4-0.7,0.9-1.1,1.3c-0.9,0.6-0.9,0.6-11.1,9.7c-0.3,0.2-0.7,0.4-1.1,0.7
		c0-0.1-0.1-0.2-0.2-0.2c-0.2-1.3-0.3-2.6-0.6-3.9c-0.6-1.8-1.1-3.7-1.7-5.5c-0.1-0.6-0.2-1.2-0.3-1.8c0-0.9,0-1.8,0-2.7
		c0.3-0.8,0.6-1.6,0.9-2.4c0.4-0.4,0.6-0.8,2.2-2.3c0.1-0.2,0.2-0.3,0.3-0.6c0.3-0.2,0.5-0.3,0.8-0.5c0.1-0.3,0.1-0.3,1.5-1.9
		c0.3-0.1,1-1.1,1.9-1.8c4.4-4.9,4.4-4.9,4.8-5.3c0.5,0,0.5,0,0.7,0.2c0.3,2.1,0.3,2.1,0.9,4.3c0.5,1,0.9,2.1,1.4,3.2
		c0.1,0.1,0.2,0.2,0.3,0.2c0.6,2.1,0.9,4.2,1.1,5.1C499.7,395.3,499.7,396.2,499.6,397.2z M515.2,380.1c-0.8,1.2-1.7,2.2-2.3,3.2
		c-3,3.5-3.3,3.7-3.9,4.6c-0.4,0.3-0.4,0.3-2.7,3.4c-0.5,0.3-2.1,2.3-2.9,3c-0.2,0-0.4,0-0.6,0.1c-0.2-0.4-0.8-3.5-1.4-5.3
		c-0.6-1.3-1.1-2.7-1.7-4c-0.3-1.2-0.6-2.5-1-3.7c0-0.9,0-1.8,0-2.7c0.6-1.8,0.6-1.8,1.1-3c1.5-1.8,2.5-3.2,2.8-3.3
		c1.2-1.9,1.2-1.9,1.8-2.5c0.1,0,0.2-0.1,0.3-0.1c0.1-0.3,0.3-0.6,0.4-0.9c0.1,0,0.2,0,0.3-0.1c0.2-0.3,0.3-0.6,0.5-1
		c1.5-1.8,1.5-1.8,3.3-4.2c0.3,0,0.6,0,0.9-0.1c0,0.5,0.1,1.1,0.2,1.7c0.4,1,0.8,1.9,1.2,2.9c1.8,3.2,1.8,3.2,3.5,6.8
		c0.1,0.5,0.3,1,0.4,1.5c0,1,0.1,2,0.1,3C515.4,379.4,515.3,379.7,515.2,380.1z M528.2,362.1c-2.6,3.9-4.6,6.7-6.6,10
		c-0.9,1.1-1.8,2.3-2.7,3.5c-0.1,0-0.2,0-0.3,0.1c-0.1,0-0.2-0.1-0.3-0.2c-0.4-1.1-0.8-2.2-1.2-3.2c-1-1.8-2-3.6-3-5.3
		c-0.4-1-0.8-2-1.2-3.1c-0.1-0.5-0.2-1.1-0.3-1.7c0-0.9,0.1-1.9,0.2-2.8c0.2-0.5,0.3-1,0.6-1.6c0.7-1.1,1.5-1.9,2.7-3.8
		c0.4-0.4,0.6-0.9,1.9-2.6c1.2-2.2,2.7-4.2,3.4-5.5c0.1-0.1,0.2-0.2,0.3-0.3c0.2,0,0.3,0,0.6,0c0.1,0.2,0.3,0.4,0.5,0.6
		c0.1,0.3,0.2,0.6,0.3,1c1.2,2.1,2.4,3.8,2.5,4.3c0.2,0.2,0.5,0.4,0.7,0.7c0.3,0.9,1.6,3.2,2.1,4.7c0.1,0.8,0.2,1.5,0.3,2.3
		C528.5,361.2,528.5,361.2,528.2,362.1z M539.9,342.7c-0.1,0.1-0.2,0.2-0.3,0.3c-0.3,0.7-0.6,1.4-0.9,2.2c-0.9,1.5-1.8,3-2.7,4.6
		c-0.1,0.3-0.2,0.6-0.3,0.9c-0.8,1-0.8,1-3.8,5.8c-0.2,0-0.3,0.1-0.5,0.2c-0.5-0.9-0.5-0.9-1.7-4.1c-1.2-1.9-2.5-3.9-3.8-5.9
		c-0.3-0.7-0.6-1.5-0.9-2.3c-0.1-0.5-0.2-0.9-0.3-1.4c0-0.8,0-1.7,0-2.5c0.3-0.9,0.7-1.8,1.1-2.7c1.9-3.6,3-6.2,3.3-6.6
		c0.6-1.6,1.7-3.9,2.2-4.7c0.2,0,0.3,0,0.6,0c1.4,2.4,1.4,2.4,1.7,2.6c0.7,1.1,0.7,1.1,3.4,4c1.6,2.6,1.6,2.6,1.9,2.8
		c0.5,1,0.9,2,1.4,3c0,0.8,0.1,1.6,0.1,2.5C540.3,341.7,540.1,342.2,539.9,342.7z M548.1,325c-1.1,2.6-2.3,5.2-3.4,7.9
		c-0.3,0.5-0.6,1-0.9,1.5c-0.3,1-0.3,1-0.6,1.3c-0.2,0-0.4,0-0.6,0.1c-0.7-1.1-1.4-2.2-2.1-3.4c-3.2-3.4-3.8-4.3-4.5-4.9
		c-0.6-0.8-1.2-2.2-1.6-2.7c-0.2-0.7-0.3-1.5-0.6-2.3c0-0.6,0-1.2,0-1.8c0.1-0.5,0.2-1,0.3-1.6c1.5-3.8,1.5-3.8,4.5-12.2
		c0.2-0.1,0.3-0.2,0.6-0.3c1.7,1.4,3.2,2.9,5.2,4.4c1.2,1.3,2.4,2.6,3.7,4c0.5,1,1,2.1,1.6,3.1c0,0.5,0.1,1.1,0.1,1.6
		C549.2,321.4,548.7,323.2,548.1,325z M555.8,299.2c-2,6.9-2.1,7.9-3.9,14c-0.3,0.5-0.3,0.5-0.8,0.8c-0.2-0.2-0.4-0.3-0.6-0.5
		c-0.5-0.6-0.9-1.2-1.4-1.9c-2.9-2.9-2.9-2.9-3.1-3.3c-0.3-0.1-0.7-0.3-1-0.4c-0.4-0.5-2.1-2-3.5-3.6c-0.3-0.7-0.5-1.4-0.8-2.2
		c0-0.8,0.1-1.6,0.1-2.4c0.6-2.7,1.3-5.4,2-8.1c0.3-2.1,0.3-2.1,1.2-6.2c0.2-0.2,0.2-0.2,0.7-0.2c1.6,1.6,1.6,1.6,3.2,3
		c2.9,2.1,3.5,2.3,4.4,3c0.3,0.4,0.9,0.8,3,3.5c0.2,0.5,0.5,1,0.7,1.5C555.8,297.2,555.8,298.2,555.8,299.2z M559.9,274.7
		c-0.6,3.4-1.7,11.3-2.6,16.3c-0.2,0.3-0.2,0.3-0.7,0.5c-0.8-1.1-0.8-1.1-2.1-2.5c-0.7-0.4-0.9-0.7-1.6-1.1c-0.1-0.2-3-2.2-3.1-2.4
		c-0.4-0.2-0.8-0.4-1.2-0.7c-0.8-0.7-1.6-1.5-2.4-2.3c-0.3-0.7-0.3-0.7-0.7-1.2c-0.1-0.5-0.3-1-0.4-1.6c0.1-2.4,1.2-10.9,1.4-15.2
		c0.1-0.3,0.2-0.6,0.3-1c0.2,0,0.4,0,0.6-0.1c0.6,0.4,1.2,0.9,1.8,1.3c0.8,0.4,1.5,0.8,2.4,1.2c0.3,0,0.5,0.1,0.8,0.1
		c1.1,0.5,2.3,1,3.4,1.6c0.6,0.4,1.2,0.9,1.8,1.4c0.5,0.5,0.9,1.1,1.5,1.7c0.3,0.8,0.7,1.3,0.9,2
		C559.9,273.5,559.9,274.1,559.9,274.7z M560,267c-0.7-0.5-1.5-1.1-2.3-1.6c-1.1-0.5-1.1-0.5-1.9-1c-1.8-0.5-1.8-0.5-4.2-1.7
		c-0.4-0.4-0.4-0.4-2.2-1.5c-0.1-0.3-1-1.1-1.6-2.1c-0.2-0.7-0.3-1.5-0.6-2.2c0.1-1.8,0.2-3.5,0.3-5.3c0-6.4-0.2-7.5-0.1-9.4
		c0.3,0,0.5-0.1,0.8-0.1c0.3,0.3,0.6,0.6,1,0.9c0.8,0.3,1.6,0.7,2.5,1c5.1,1.6,5.1,1.6,6.1,2.1c0.6,0.6,1.2,1,2.7,2.5
		c0.3,0.7,0.5,1.4,0.8,2.2c0,1,0.1,2,0.1,3c-0.6,12.5-0.6,12.5-0.7,13.1C560.4,266.8,560.2,266.9,560,267z"/>
	<path class="st0" d="M370.2,293.1h-40.4c-3.1,0-32.6-0.2-32.6,3.9c0,3.8,29.5,3.9,32.6,3.9h40.4c3.1,0,32.6-0.5,32.8-3.9
		C403.1,292.7,373.3,293.1,370.2,293.1z"/>
</g>
</svg>
