<?xml version="1.0" encoding="utf-8"?>
<!-- Generator: Adobe Illustrator 25.4.1, SVG Export Plug-In . SVG Version: 6.00 Build 0)  -->
<svg version="1.1" id="Vrstva_1" xmlns="http://www.w3.org/2000/svg" xmlns:xlink="http://www.w3.org/1999/xlink" x="0px" y="0px"
	 viewBox="0 0 700 638.8" style="enable-background:new 0 0 700 638.8;" xml:space="preserve">
<g>
	<path d="M632.4,243.2c0-53.7-39.1-92.5-93.3-92.5c-42.2,0-66.4,22.2-68.4,24.1c2.3-2.2,34.2-33.7,34.2-78.7
		c0-51.1-39.2-91.4-93.7-91.4c-25.3,0-42.1,9.1-52.2,16.5c-4-7.7-7-14.6-9-21.2c-2,6.5-4.9,13.5-9,21.2
		C331,13.7,314.1,4.6,288.8,4.6c-54.5,0-93.7,40.2-93.7,91.4c0,45,31.9,76.5,34.2,78.7c-2-1.9-26.2-24.1-68.4-24.1
		c-54.3,0-93.3,38.8-93.3,92.5c0,40.6,23.9,63.8,23.9,63.8s-23.9,24.2-23.9,61.5c0,42.4,25,94.3,94.2,94.3c43,0,78.5-29.2,97-57.3
		c3.5,13.3,9.1,27.9,18.3,42c-2.7,15.1-15.6,32.4-34,32.4c-14.2,0-25.5-12.1-27.5-22.2c-9.1,6.5-17.7,20.9-17.7,37.8
		c0,26.9,19.3,49.6,55.2,49.6c30.2,0,45.8-17.4,45.8-17.4s-1.4,4-1.4,12.2c0,24.8,19.6,49.7,39.3,75.2c8.2,10.6,13.1,23.6,13.1,23.6
		s4.9-12.9,13.1-23.6c19.7-25.5,39.3-50.3,39.3-75.2c0-8.2-1.4-12.2-1.4-12.2s15.7,17.4,45.8,17.4c35.9,0,55.2-22.6,55.2-49.6
		c0-16.9-8.6-31.3-17.7-37.8c-1.9,10.1-13.3,22.2-27.5,22.2c-18.4,0-31.3-17.3-34-32.4c9.2-14.1,14.8-28.7,18.3-42
		c18.6,28.1,54.1,57.3,97,57.3c69.2,0,94.2-52,94.2-94.3c0-37.3-23.9-61.5-23.9-61.5S632.4,283.8,632.4,243.2z M393.6,86.5
		c19.6,29.1,32.9,60.2,32.9,102.8c0,33.9-6.3,54.9-10.6,67.6h-63.4c-0.3-18.2-1.6-238.7-1.6-243.6C353,20.9,368.4,49.2,393.6,86.5z
		 M483.7,324.1c-11.4,0-20.9,4.8-27.3,9v-42.9c12.6-14.3,29.3-26.1,48.8-26.1c30,0,45.8,23.1,42.8,50.6c-2.9,26.2-13.1,54-13.1,75.1
		c0,19.7,4.1,33,14.5,43.7c-35.5-15.9-37-34.3-35.1-68.7C515.9,334.9,501.8,324.1,483.7,324.1z M538,394.6
		c0-31.9,12.6-57.3,14.8-83.8c2.7-32.9-20.4-51.6-47.5-51.6c-19.5,0-36.5,10-51.9,25.9l-30.9-25.8c7.9-23.5,27.8-60.9,84-60.9
		c58,0,85,46.9,85,89.2c0,34.5-11.1,57.2-27.3,85.4c-8.3,14.5-16.4,27.4-16.4,42.2c0,10.9,4.2,19.5,4.2,19.5
		C546.7,428.1,538,416.5,538,394.6z M349.1,13.3c-0.1,4.9-1.3,225.4-1.6,243.6h-63.4c-4.3-12.7-10.6-33.7-10.6-67.6
		c0-42.6,13.3-73.8,32.9-102.8C331.6,49.2,347,20.9,349.1,13.3z M185.7,364.8c1.9,34.4,0.4,52.8-35.1,68.7
		c10.4-10.7,14.5-24,14.5-43.7c0-21-10.2-48.8-13.1-75.1c-3-27.5,12.8-50.6,42.8-50.6c19.4,0,36.1,11.8,48.8,26.1v42.9
		c-6.4-4.2-15.9-9-27.3-9C198.2,324.1,184.1,334.9,185.7,364.8z M194.8,259.2c-27.1,0-50.1,18.7-47.5,51.6
		c2.1,26.5,14.8,51.9,14.8,83.8c0,21.9-8.7,33.5-13.8,40c0,0,4.2-8.5,4.2-19.5c0-14.8-8.1-27.7-16.4-42.2
		c-16.2-28.2-27.3-50.9-27.3-85.4c0-42.3,27-89.2,85-89.2c56.2,0,76.1,37.4,84,60.9l-30.9,25.8C231.2,269.2,214.2,259.2,194.8,259.2
		z M257.6,400.6c-13.4,18-44.2,55.5-93.6,55.5c-56.2,0-86.7-42.6-86.7-90.2c0-29.8,14.6-49.8,22.8-59c-8.1-8.6-22.8-29.5-22.8-60.3
		c0-43.6,28.6-89,89-89c43.9,0,74.3,31.8,81,37.4l2.9-2.8c0,0-46.3-44-46.3-94.1c0-51,39.3-85.2,86.3-85.2
		c23.4,0,38.5,6.8,48.3,13.1c-7.1,12.5-16.9,26.7-30.1,43.6c-18.4,23.5-46.1,62.8-46.1,113.7c0,28.5,3.5,36,3.5,36
		s-21.2-30.6-67.9-30.6c-59.5,0-96.6,39.2-96.6,95.2c0,63.8,45.6,99.9,47.2,131.4c0.7,13.6-5.6,23.8-5.6,23.8s19.6-4,34.2-17.1
		c12.8-11.5,15.7-25.5,14.7-49c-1-24.2,7.3-36.9,26.6-36.9c10.8,0,21.5,3.6,33.9,18.8C268,373.9,266.1,389.1,257.6,400.6z
		 M213.5,464.6c0,0,9.1,22.3,32.4,22.3c26.9,0,38.1-24.2,41.5-33.1c4,5,8.3,9.6,13,13.9c-8.3,24.5-35,47.6-59.8,40.6
		c-21.7-6.1-28.3-23.2-28.3-35.7C212.2,469,213.5,464.6,213.5,464.6z M252.7,537.5c-28,0-49.7-16.8-49.7-41.7
		c0-14.6,5.3-24.5,8.5-28.7c-0.4,1-1.2,3.5-1.2,7.3c0,13.6,8.1,28.3,22.3,34.7c31.9,14.3,59.9-11.4,71.7-37.7
		c4.6,3.9,9.5,7.6,14.7,10.9C313.9,495.2,291.6,537.5,252.7,537.5z M338.4,607.4c-7.7-11.1-30.5-44-30.5-69.6
		c0-23.1,12.6-38.7,17-52c6.8,3.9,15,7.6,22.7,10.3l1.6,131.7C349.1,627.7,346.1,618.5,338.4,607.4z M361.6,607.4
		c-7.7,11.1-10.7,20.3-10.7,20.3l1.6-131.7c7.7-2.6,15.9-6.4,22.7-10.3c4.3,13.3,17,28.8,17,52C392.1,563.4,369.3,596.2,361.6,607.4
		z M497,495.8c0,25-21.8,41.7-49.7,41.7c-38.9,0-61.2-42.4-66.2-55.3c5.2-3.3,10.1-7,14.7-10.9c11.7,26.3,39.8,52,71.7,37.7
		c14.2-6.4,22.3-21.1,22.3-34.7c0-3.8-0.8-6.3-1.2-7.3C491.7,471.3,497,481.1,497,495.8z M454.1,487c23.3,0,32.4-22.3,32.4-22.3
		s1.2,4.4,1.2,8.1c0,12.5-6.6,29.6-28.3,35.7c-24.8,7-51.5-16.1-59.8-40.6c4.7-4.3,9-9,13-13.9C416,462.8,427.2,487,454.1,487z
		 M350,490.8c-41.6-14.5-71.2-46.8-81.5-88.4c16.5-26.5-5.9-53.7-19.1-65.4c0-9.8,0-46.6,0-46.6l33.1-27.6h135l33.1,27.6
		c0,0,0,36.8,0,46.6c-13.2,11.7-35.7,38.9-19.1,65.4C421.2,444,391.6,476.3,350,490.8z M622.8,365.9c0,47.6-30.5,90.2-86.7,90.2
		c-49.4,0-80.2-37.4-93.6-55.5c-8.6-11.5-10.4-26.7,5.2-45.8c12.4-15.2,23.1-18.8,33.9-18.8c19.4,0,27.7,12.7,26.6,36.9
		c-1,23.5,1.9,37.5,14.7,49c14.5,13.1,34.2,17.1,34.2,17.1s-6.3-10.2-5.6-23.8c1.6-31.6,47.2-67.6,47.2-131.4
		c0-55.9-37.1-95.2-96.6-95.2c-46.8,0-67.9,30.6-67.9,30.6s3.5-7.6,3.5-36c0-50.9-27.6-90.2-46.1-113.7
		c-13.2-16.9-23-31.1-30.1-43.6c9.8-6.2,24.9-13.1,48.3-13.1c47,0,86.3,34.2,86.3,85.2c0,50.1-46.3,94.1-46.3,94.1l2.9,2.8
		c6.7-5.6,37.1-37.4,81-37.4c60.5,0,89,45.4,89,89c0,30.8-14.6,51.7-22.8,60.3C608.2,316.1,622.8,336.1,622.8,365.9z"/>
	<path d="M403.5,281.3c-6.2,2.5-9.7,5.7-13.6,8.8c1.6-3.4,1.5-5.3,2.3-9.3c0.8-4,2-7.2,3.4-9.7c-4.4,1.9-11.8,3.8-17.7,5
		c-5.9,1.2-13.4,2.2-18.5,10c-12.6,0.1-23.3,0.9-30.4,2.3c-4.7,1-6.5,6.2-6.5,6.2s-13.8,0.6-25.5,2c-14.7,1.8-20.2,2.8-20.2,8
		c0,4.2,5.4,7.5,5.4,7.5c0.5,9.5,10.2,13.7,10.2,13.7c-1,2.8,0.9,6.4,2.9,8.8c-8.9,1.1-14-6.7-16.1-9.6c-3.7-5-7.2-9.1-11.3-9.1
		c-6,0-6.7,6.3-6.7,8.3c0,1.9,0.8,10.7,11.8,14.3c11,3.6,19.5,3.3,23.2,3.6c-1.7,1.9-1.2,5.3-1.2,5.3s-1.5-0.1-2.7-0.1
		c-1.6,0-2.8,0.2-3,1.9c-0.1,1.1,0,6.1,3.2,8.5c5.3,4,14.5,2.9,24.6,2.2c10.2-0.7,16.8-1.4,16.8,3.1c0,4.5-5.9,8.9-11.3,10.2
		c-5.4,1.3-9.1-2.1-9.1-6.5c-8,4.7-4.7,13.3-1.7,15.4c-6.8,2.1-12.9,4.1-20.3,12.9c-7,8.3-6.8,21.1-1.9,28.2c1-7,6.9-13.7,15.2-13.3
		c-16.4,15.5-1.9,37.9,5.1,39.9c-3.9-14.8,2.8-24.1,9.5-25.1c-7.9,12.1-2.9,35.2,16.9,40.3c-1.6-1.6-3.3-5.4-3.3-8.8
		c0-7.3,5.9-13.3,13.3-13.3c7.3,0,13.3,5.9,13.3,13.3c0,6.9-5.3,12.6-12.1,13.2c8.6,1.9,19.5-0.6,28.9-11
		c9.4-10.4,6.9-26.1,6.9-26.1s11.7,4.5,21.8-3.3c10.8-8.3,8.2-19,8.2-19s-4.6,3.1-9.5,3.1c-4.8,0-8.1-3.3-8.1-7.9
		c0-3.9,3.6-6.9,7-6.9c3.7,0,5.6,1.3,8.8,4.2c-0.9-3.2-1.6-7.4-1.6-11.8c0-4.4,0.6-16.3,0.6-26.3c0-22.6-4.5-31.5-4.5-31.5
		c8.9-7.8,8-21,8-29.7s1.3-13.8,2.8-17.2c1.5-3.4,4.5-6.2,4.5-6.2C417.4,278.3,410.7,278.3,403.5,281.3z M316.5,347.6
		c-17.3,0.9-15.9-5.5-15.9-5.5s6-0.9,12.9-0.9c16.6,0,21.3,6,21.3,6S328.2,347,316.5,347.6z M299.7,334.2c-1-1.7,0-5.4,0.6-7
		c4.4-0.3,12.1-0.5,19.2,0.9c4.2,0.8,14.8,2.9,16.1,15.4C324.4,331.7,299.7,334.2,299.7,334.2z M348,308.1c0,0-2.1-2.2-7.6-2.9
		c0.3,0.5,0.5,1.2,0.5,1.8c0,1.9-1.6,3.5-3.5,3.5c-1.9,0-3.5-1.6-3.5-3.5c0-1,0.4-1.9,1.1-2.5c-6.4-1-6.2-4.6-6.2-4.6
		c1.6,1.1,3.4,1.7,9.6,2.4C348.3,303.3,348,308.1,348,308.1z"/>
</g>
</svg>
